<?xml version="1.0" encoding="utf-8"?><svg xmlns="http://www.w3.org/2000/svg" xmlns:xlink="http://www.w3.org/1999/xlink"><symbol viewBox="0 0 16 18" id="account" xmlns="http://www.w3.org/2000/svg">
    <g clip-path="url(#aclip0_1502_4544)">
        <path d="M11 10.5938C10.0391 10.5938 9.57701 11.125 8 11.125C6.42299 11.125 5.96429 10.5938 5 10.5938C2.51562 10.5938 0.5 12.5926 0.5 15.0562V15.9062C0.5 16.7861 1.21987 17.5 2.10714 17.5H13.8929C14.7801 17.5 15.5 16.7861 15.5 15.9062V15.0562C15.5 12.5926 13.4844 10.5938 11 10.5938ZM13.8929 15.9062H2.10714V15.0562C2.10714 13.4758 3.40625 12.1875 5 12.1875C5.48884 12.1875 6.28237 12.7188 8 12.7188C9.73103 12.7188 10.5078 12.1875 11 12.1875C12.5938 12.1875 13.8929 13.4758 13.8929 15.0562V15.9062ZM8 10.0625C10.6618 10.0625 12.8214 7.9209 12.8214 5.28125C12.8214 2.6416 10.6618 0.5 8 0.5C5.33817 0.5 3.17857 2.6416 3.17857 5.28125C3.17857 7.9209 5.33817 10.0625 8 10.0625ZM8 2.09375C9.7712 2.09375 11.2143 3.5248 11.2143 5.28125C11.2143 7.0377 9.7712 8.46875 8 8.46875C6.22879 8.46875 4.78571 7.0377 4.78571 5.28125C4.78571 3.5248 6.22879 2.09375 8 2.09375Z"/>
    </g>
    <defs>
        <clipPath id="aclip0_1502_4544">
            <rect width="15" height="17" transform="translate(0.5 0.5)"/>
        </clipPath>
    </defs>
</symbol><symbol viewBox="0 0 18 20" id="arrow-right-bottom" xmlns="http://www.w3.org/2000/svg">
    <path d="M3 3.5L15 16.5M15 16.5V4.02M15 16.5H3.48" stroke-width="2.5" stroke-linecap="round" stroke-linejoin="round"/>
</symbol><symbol viewBox="0 0 205 42" id="betogether" xmlns="http://www.w3.org/2000/svg">
    <mask id="cpath-1-outside-1_389_6608" maskUnits="userSpaceOnUse" x="-1" y="-1" width="207" height="44">
        <rect x="-1" y="-1" width="207" height="44"/>
        <path d="M0.475 18V0.499999H14.1V3.175H3.675V7.475H8.85C10.95 7.475 12.5417 7.91667 13.625 8.8C14.725 9.66667 15.275 10.9333 15.275 12.6C15.275 14.3167 14.6667 15.65 13.45 16.6C12.25 17.5333 10.55 18 8.35 18H0.475ZM3.675 15.5H8.175C9.425 15.5 10.375 15.2583 11.025 14.775C11.675 14.2917 12 13.5917 12 12.675C12 10.875 10.725 9.975 8.175 9.975H3.675V15.5ZM17.8484 15.25C18.7651 15.5667 19.5734 15.65 20.2734 15.5C20.9734 15.35 21.5984 14.8417 22.1484 13.975L22.9984 12.65L23.3234 12.3L29.4234 0.499999H32.6234L25.0234 14.625C24.4068 15.8083 23.6734 16.7083 22.8234 17.325C21.9734 17.9417 21.0568 18.2833 20.0734 18.35C19.1068 18.4333 18.0984 18.25 17.0484 17.8L17.8484 15.25ZM23.2484 15.1L15.4484 0.499999H18.9234L25.0234 12.6L23.2484 15.1ZM45.6395 16.5V3.25H38.7895L38.6645 6.35C38.6145 7.51667 38.5395 8.625 38.4395 9.675C38.3561 10.7083 38.2145 11.65 38.0145 12.5C37.8311 13.35 37.5728 14.0583 37.2395 14.625C36.9061 15.1917 36.4978 15.5667 36.0145 15.75L32.5145 15.25C33.1478 15.2833 33.6645 15.0667 34.0645 14.6C34.4811 14.1333 34.8061 13.4833 35.0395 12.65C35.2728 11.8167 35.4478 10.8417 35.5645 9.725C35.6811 8.59167 35.7645 7.36667 35.8145 6.05L36.0145 0.499999H48.8395V16.5H45.6395ZM31.9145 21.725L31.9395 15.25H51.3645V21.725H48.3645V18H34.9395V21.725H31.9145ZM61.8746 6.425C63.9579 6.425 65.5663 6.89167 66.6996 7.825C67.8329 8.75833 68.3996 10.1583 68.3996 12.025C68.3996 13.9917 67.7746 15.4833 66.5246 16.5C65.2913 17.5 63.5663 18 61.3496 18H53.8246V0.499999H57.0246V6.425H61.8746ZM61.1996 15.5C62.4496 15.5 63.4163 15.2083 64.0996 14.625C64.7996 14.0417 65.1496 13.1917 65.1496 12.075C65.1496 10.975 64.8079 10.175 64.1246 9.675C63.4413 9.15833 62.4663 8.9 61.1996 8.9H57.0246V15.5H61.1996ZM77.4037 18V0.499999H85.2287C87.1954 0.499999 88.7287 0.891665 89.8287 1.675C90.9287 2.44167 91.4787 3.55 91.4787 5C91.4787 6.43333 90.9537 7.54167 89.9037 8.325C88.8537 9.09167 87.4704 9.475 85.7537 9.475L86.2037 8.575C88.1537 8.575 89.662 8.96667 90.7287 9.75C91.7954 10.5333 92.3287 11.6667 92.3287 13.15C92.3287 14.6667 91.7704 15.8583 90.6537 16.725C89.537 17.575 87.887 18 85.7037 18H77.4037ZM80.6037 15.5H85.6037C86.737 15.5 87.5954 15.2917 88.1787 14.875C88.762 14.4417 89.0537 13.7833 89.0537 12.9C89.0537 12.0167 88.762 11.375 88.1787 10.975C87.5954 10.5583 86.737 10.35 85.6037 10.35H80.6037V15.5ZM80.6037 7.975H84.9537C86.0037 7.975 86.8037 7.76667 87.3537 7.35C87.9037 6.91667 88.1787 6.3 88.1787 5.5C88.1787 4.66667 87.9037 4.04167 87.3537 3.625C86.8037 3.20833 86.0037 3 84.9537 3H80.6037V7.975ZM95.4311 18V0.499999H98.0811L105.756 13.275H104.331L111.881 0.499999H114.531L114.581 18H111.481L111.456 5.325H112.106L105.706 16H104.256L97.7561 5.325H98.5061V18H95.4311ZM121.853 7.775H130.553V10.45H121.853V7.775ZM122.103 15.275H131.978V18H118.853V0.499999H131.628V3.225H122.103V15.275ZM143.026 18.25C141.693 18.25 140.451 18.0333 139.301 17.6C138.168 17.15 137.176 16.525 136.326 15.725C135.493 14.9083 134.843 13.95 134.376 12.85C133.91 11.75 133.676 10.55 133.676 9.25C133.676 7.95 133.91 6.75 134.376 5.65C134.843 4.55 135.501 3.6 136.351 2.8C137.201 1.98333 138.193 1.35833 139.326 0.924999C140.46 0.474999 141.701 0.249999 143.051 0.249999C144.485 0.249999 145.793 0.499999 146.976 1C148.16 1.48333 149.16 2.20833 149.976 3.175L147.876 5.15C147.243 4.46667 146.535 3.95833 145.751 3.625C144.968 3.275 144.118 3.1 143.201 3.1C142.285 3.1 141.443 3.25 140.676 3.55C139.926 3.85 139.268 4.275 138.701 4.825C138.151 5.375 137.718 6.025 137.401 6.775C137.101 7.525 136.951 8.35 136.951 9.25C136.951 10.15 137.101 10.975 137.401 11.725C137.718 12.475 138.151 13.125 138.701 13.675C139.268 14.225 139.926 14.65 140.676 14.95C141.443 15.25 142.285 15.4 143.201 15.4C144.118 15.4 144.968 15.2333 145.751 14.9C146.535 14.55 147.243 14.025 147.876 13.325L149.976 15.325C149.16 16.275 148.16 17 146.976 17.5C145.793 18 144.476 18.25 143.026 18.25ZM155.849 18V2.45L156.624 3.25H150.074V0.499999H164.874V3.25H158.324L159.074 2.45V18H155.849ZM170.052 7.775H178.752V10.45H170.052V7.775ZM170.302 15.275H180.177V18H167.052V0.499999H179.827V3.225H170.302V15.275ZM197.509 18.25C196.175 18.25 194.934 18.0333 193.784 17.6C192.65 17.15 191.659 16.525 190.809 15.725C189.975 14.9083 189.325 13.95 188.859 12.85C188.392 11.75 188.159 10.55 188.159 9.25C188.159 7.95 188.392 6.75 188.859 5.65C189.325 4.55 189.984 3.6 190.834 2.8C191.684 1.98333 192.675 1.35833 193.809 0.924999C194.942 0.474999 196.184 0.249999 197.534 0.249999C198.967 0.249999 200.275 0.499999 201.459 1C202.642 1.48333 203.642 2.20833 204.459 3.175L202.359 5.15C201.725 4.46667 201.017 3.95833 200.234 3.625C199.45 3.275 198.6 3.1 197.684 3.1C196.767 3.1 195.925 3.25 195.159 3.55C194.409 3.85 193.75 4.275 193.184 4.825C192.634 5.375 192.2 6.025 191.884 6.775C191.584 7.525 191.434 8.35 191.434 9.25C191.434 10.15 191.584 10.975 191.884 11.725C192.2 12.475 192.634 13.125 193.184 13.675C193.75 14.225 194.409 14.65 195.159 14.95C195.925 15.25 196.767 15.4 197.684 15.4C198.6 15.4 199.45 15.2333 200.234 14.9C201.017 14.55 201.725 14.025 202.359 13.325L204.459 15.325C203.642 16.275 202.642 17 201.459 17.5C200.275 18 198.959 18.25 197.509 18.25ZM0.35 41V23.5H8.55C10.65 23.5 12.25 23.9167 13.35 24.75C14.45 25.5667 15 26.6667 15 28.05C15 28.9833 14.7833 29.7833 14.35 30.45C13.9167 31.1 13.3333 31.6083 12.6 31.975C11.8833 32.325 11.1 32.5 10.25 32.5L10.7 31.6C11.6833 31.6 12.5667 31.7833 13.35 32.15C14.1333 32.5 14.75 33.0167 15.2 33.7C15.6667 34.3833 15.9 35.2333 15.9 36.25C15.9 37.75 15.325 38.9167 14.175 39.75C13.025 40.5833 11.3167 41 9.05 41H0.35ZM3.6 38.45H8.85C10.0667 38.45 11 38.25 11.65 37.85C12.3 37.45 12.625 36.8083 12.625 35.925C12.625 35.0583 12.3 34.425 11.65 34.025C11 33.6083 10.0667 33.4 8.85 33.4H3.35V30.875H8.2C9.33333 30.875 10.2 30.675 10.8 30.275C11.4167 29.875 11.725 29.275 11.725 28.475C11.725 27.6583 11.4167 27.05 10.8 26.65C10.2 26.25 9.33333 26.05 8.2 26.05H3.6V38.45ZM21.7436 30.775H30.4436V33.45H21.7436V30.775ZM21.9936 38.275H31.8686V41H18.7436V23.5H31.5186V26.225H21.9936V38.275ZM49.3508 41.25C47.9841 41.25 46.7258 41.025 45.5758 40.575C44.4258 40.125 43.4258 39.5 42.5758 38.7C41.7258 37.8833 41.0674 36.9333 40.6008 35.85C40.1341 34.75 39.9008 33.55 39.9008 32.25C39.9008 30.95 40.1341 29.7583 40.6008 28.675C41.0674 27.575 41.7258 26.625 42.5758 25.825C43.4258 25.0083 44.4258 24.375 45.5758 23.925C46.7258 23.475 47.9758 23.25 49.3258 23.25C50.6924 23.25 51.9424 23.475 53.0758 23.925C54.2258 24.375 55.2258 25.0083 56.0758 25.825C56.9258 26.625 57.5841 27.575 58.0508 28.675C58.5174 29.7583 58.7508 30.95 58.7508 32.25C58.7508 33.55 58.5174 34.75 58.0508 35.85C57.5841 36.95 56.9258 37.9 56.0758 38.7C55.2258 39.5 54.2258 40.125 53.0758 40.575C51.9424 41.025 50.7008 41.25 49.3508 41.25ZM49.3258 38.4C50.2091 38.4 51.0258 38.25 51.7758 37.95C52.5258 37.65 53.1758 37.225 53.7258 36.675C54.2758 36.1083 54.7008 35.4583 55.0008 34.725C55.3174 33.975 55.4758 33.15 55.4758 32.25C55.4758 31.35 55.3174 30.5333 55.0008 29.8C54.7008 29.05 54.2758 28.4 53.7258 27.85C53.1758 27.2833 52.5258 26.85 51.7758 26.55C51.0258 26.25 50.2091 26.1 49.3258 26.1C48.4424 26.1 47.6258 26.25 46.8758 26.55C46.1424 26.85 45.4924 27.2833 44.9258 27.85C44.3758 28.4 43.9424 29.05 43.6258 29.8C43.3258 30.5333 43.1758 31.35 43.1758 32.25C43.1758 33.1333 43.3258 33.95 43.6258 34.7C43.9424 35.45 44.3758 36.1083 44.9258 36.675C45.4758 37.225 46.1258 37.65 46.8758 37.95C47.6258 38.25 48.4424 38.4 49.3258 38.4ZM61.5707 41V23.5H64.2457L75.2207 36.975H73.8957V23.5H77.1207V41H74.4457L63.4707 27.525H64.7957V41H61.5707ZM84.185 30.775H92.885V33.45H84.185V30.775ZM84.435 38.275H94.31V41H81.185V23.5H93.96V26.225H84.435V38.275Z"/>
    </mask>
    <path d="M0.475 18H-0.525V19H0.475V18ZM0.475 0.499999V-0.500001H-0.525V0.499999H0.475ZM14.1 0.499999H15.1V-0.500001H14.1V0.499999ZM14.1 3.175V4.175H15.1V3.175H14.1ZM3.675 3.175V2.175H2.675V3.175H3.675ZM3.675 7.475H2.675V8.475H3.675V7.475ZM13.625 8.8L12.9931 9.57502L12.9996 9.58031L13.0061 9.58549L13.625 8.8ZM13.45 16.6L14.0639 17.3894L14.0654 17.3882L13.45 16.6ZM3.675 15.5H2.675V16.5H3.675V15.5ZM11.025 14.775L11.6217 15.5775H11.6217L11.025 14.775ZM3.675 9.975V8.975H2.675V9.975H3.675ZM1.475 18V0.499999H-0.525V18H1.475ZM0.475 1.5H14.1V-0.500001H0.475V1.5ZM13.1 0.499999V3.175H15.1V0.499999H13.1ZM14.1 2.175H3.675V4.175H14.1V2.175ZM2.675 3.175V7.475H4.675V3.175H2.675ZM3.675 8.475H8.85V6.475H3.675V8.475ZM8.85 8.475C10.8307 8.475 12.1585 8.89457 12.9931 9.57502L14.2569 8.02498C12.9248 6.93876 11.0693 6.475 8.85 6.475V8.475ZM13.0061 9.58549C13.8186 10.2256 14.275 11.1746 14.275 12.6H16.275C16.275 10.692 15.6314 9.10772 14.2439 8.01451L13.0061 9.58549ZM14.275 12.6C14.275 14.0482 13.7791 15.0743 12.8346 15.8118L14.0654 17.3882C15.5543 16.2257 16.275 14.5852 16.275 12.6H14.275ZM12.8361 15.8106C11.8749 16.5582 10.4239 17 8.35 17V19C10.6761 19 12.6251 18.5084 14.0639 17.3894L12.8361 15.8106ZM8.35 17H0.475V19H8.35V17ZM3.675 16.5H8.175V14.5H3.675V16.5ZM8.175 16.5C9.53034 16.5 10.7282 16.2419 11.6217 15.5775L10.4283 13.9725C10.0218 14.2748 9.31967 14.5 8.175 14.5V16.5ZM11.6217 15.5775C12.5615 14.8787 13 13.8601 13 12.675H11C11 13.3232 10.7885 13.7047 10.4283 13.9725L11.6217 15.5775ZM13 12.675C13 11.5074 12.567 10.5012 11.6204 9.83303C10.7376 9.20988 9.53716 8.975 8.175 8.975V10.975C9.36284 10.975 10.0749 11.1901 10.4671 11.467C10.7955 11.6988 11 12.0426 11 12.675H13ZM8.175 8.975H3.675V10.975H8.175V8.975ZM2.675 9.975V15.5H4.675V9.975H2.675ZM17.8484 15.25L18.175 14.3048L17.2023 13.9688L16.8943 14.9507L17.8484 15.25ZM20.2734 15.5L20.483 16.4778L20.2734 15.5ZM22.1484 13.975L21.3067 13.435L21.3041 13.4392L22.1484 13.975ZM22.9984 12.65L22.2656 11.9695L22.2049 12.0349L22.1567 12.11L22.9984 12.65ZM23.3234 12.3L24.0562 12.9805L24.1491 12.8804L24.2118 12.7592L23.3234 12.3ZM29.4234 0.499999V-0.500001H28.8147L28.5351 0.0407808L29.4234 0.499999ZM32.6234 0.499999L33.5041 0.97382L34.2971 -0.500001H32.6234V0.499999ZM25.0234 14.625L24.1427 14.1511L24.1366 14.1629L25.0234 14.625ZM22.8234 17.325L23.4107 18.1344L22.8234 17.325ZM20.0734 18.35L20.0058 17.3523L19.9967 17.3529L19.9875 17.3537L20.0734 18.35ZM17.0484 17.8L16.0943 17.5007L15.8237 18.3631L16.6545 18.7191L17.0484 17.8ZM23.2484 15.1L22.3664 15.5712L23.1281 16.9969L24.0638 15.6789L23.2484 15.1ZM15.4484 0.499999V-0.500001H13.7804L14.5664 0.971214L15.4484 0.499999ZM18.9234 0.499999L19.8164 0.0498357L19.5392 -0.500001H18.9234V0.499999ZM25.0234 12.6L25.8388 13.1789L26.1876 12.6877L25.9164 12.1498L25.0234 12.6ZM17.5219 16.1952C18.5519 16.551 19.5521 16.6773 20.483 16.4778L20.0639 14.5222C19.5947 14.6227 18.9783 14.5823 18.175 14.3048L17.5219 16.1952ZM20.483 16.4778C21.5413 16.251 22.3619 15.5049 22.9928 14.5108L21.3041 13.4392C20.835 14.1784 20.4056 14.449 20.0639 14.5222L20.483 16.4778ZM22.9901 14.515L23.8401 13.19L22.1567 12.11L21.3067 13.435L22.9901 14.515ZM23.7312 13.3305L24.0562 12.9805L22.5906 11.6195L22.2656 11.9695L23.7312 13.3305ZM24.2118 12.7592L30.3118 0.959217L28.5351 0.0407808L22.4351 11.8408L24.2118 12.7592ZM29.4234 1.5H32.6234V-0.500001H29.4234V1.5ZM31.7428 0.0261779L24.1428 14.1512L25.9041 15.0988L33.5041 0.97382L31.7428 0.0261779ZM24.1366 14.1629C23.5727 15.2449 22.9315 16.0111 22.2362 16.5156L23.4107 18.1344C24.4154 17.4055 25.2408 16.3717 25.9102 15.0871L24.1366 14.1629ZM22.2362 16.5156C21.5279 17.0295 20.7893 17.2992 20.0058 17.3523L20.1411 19.3477C21.3243 19.2675 22.419 18.8539 23.4107 18.1344L22.2362 16.5156ZM19.9875 17.3537C19.2115 17.4206 18.368 17.2776 17.4424 16.8809L16.6545 18.7191C17.8288 19.2224 19.002 19.4461 20.1593 19.3463L19.9875 17.3537ZM18.0026 18.0993L18.8026 15.5493L16.8943 14.9507L16.0943 17.5007L18.0026 18.0993ZM24.1305 14.6288L16.3305 0.0287836L14.5664 0.971214L22.3664 15.5712L24.1305 14.6288ZM15.4484 1.5H18.9234V-0.500001H15.4484V1.5ZM18.0305 0.950162L24.1305 13.0502L25.9164 12.1498L19.8164 0.0498357L18.0305 0.950162ZM24.2081 12.0211L22.4331 14.5211L24.0638 15.6789L25.8388 13.1789L24.2081 12.0211ZM45.6395 16.5H44.6395V17.5H45.6395V16.5ZM45.6395 3.25H46.6395V2.25H45.6395V3.25ZM38.7895 3.25V2.25H37.829L37.7903 3.20971L38.7895 3.25ZM38.6645 6.35L39.6635 6.39282L39.6636 6.39029L38.6645 6.35ZM38.4395 9.675L37.444 9.58019L37.4433 9.5874L37.4427 9.59462L38.4395 9.675ZM38.0145 12.5L37.041 12.271L37.0389 12.28L37.0369 12.2892L38.0145 12.5ZM37.2395 14.625L38.1014 15.132L37.2395 14.625ZM36.0145 15.75L35.873 16.74L36.1282 16.7764L36.3691 16.685L36.0145 15.75ZM32.5145 15.25L32.567 14.2514L32.373 16.24L32.5145 15.25ZM34.0645 14.6L33.3185 13.934L33.3118 13.9415L33.3052 13.9492L34.0645 14.6ZM35.0395 12.65L36.0024 12.9196L35.0395 12.65ZM35.5645 9.725L36.559 9.82891L36.5592 9.8274L35.5645 9.725ZM35.8145 6.05L36.8137 6.08795L36.8138 6.08601L35.8145 6.05ZM36.0145 0.499999V-0.500001H35.0498L35.0151 0.463986L36.0145 0.499999ZM48.8395 0.499999H49.8395V-0.500001H48.8395V0.499999ZM48.8395 16.5V17.5H49.8395V16.5H48.8395ZM31.9145 21.725L30.9145 21.7211L30.9106 22.725H31.9145V21.725ZM31.9395 15.25V14.25H30.9433L30.9395 15.2461L31.9395 15.25ZM51.3645 15.25H52.3645V14.25H51.3645V15.25ZM51.3645 21.725V22.725H52.3645V21.725H51.3645ZM48.3645 21.725H47.3645V22.725H48.3645V21.725ZM48.3645 18H49.3645V17H48.3645V18ZM34.9395 18V17H33.9395V18H34.9395ZM34.9395 21.725V22.725H35.9395V21.725H34.9395ZM46.6395 16.5V3.25H44.6395V16.5H46.6395ZM45.6395 2.25H38.7895V4.25H45.6395V2.25ZM37.7903 3.20971L37.6653 6.30971L39.6636 6.39029L39.7886 3.29029L37.7903 3.20971ZM37.6654 6.30718C37.616 7.4583 37.5421 8.5492 37.444 9.58019L39.4349 9.76981C39.5368 8.7008 39.6129 7.57503 39.6635 6.39282L37.6654 6.30718ZM37.4427 9.59462C37.3627 10.5869 37.2276 11.4779 37.041 12.271L38.9879 12.729C39.2013 11.8221 39.3496 10.8298 39.4362 9.75538L37.4427 9.59462ZM37.0369 12.2892C36.8693 13.0665 36.6425 13.6675 36.3775 14.118L38.1014 15.132C38.503 14.4492 38.793 13.6335 38.992 12.7108L37.0369 12.2892ZM36.3775 14.118C36.1277 14.5427 35.878 14.7322 35.6598 14.815L36.3691 16.685C37.1176 16.4011 37.6846 15.8406 38.1014 15.132L36.3775 14.118ZM36.1559 14.76L32.6559 14.26L32.373 16.24L35.873 16.74L36.1559 14.76ZM32.4619 16.2486C33.3936 16.2977 34.2143 15.9617 34.8237 15.2508L33.3052 13.9492C33.1146 14.1716 32.902 14.269 32.567 14.2514L32.4619 16.2486ZM34.8104 15.266C35.3599 14.6505 35.7428 13.8468 36.0024 12.9196L34.0765 12.3804C33.8694 13.1198 33.6023 13.6162 33.3185 13.934L34.8104 15.266ZM36.0024 12.9196C36.2546 12.0188 36.4381 10.9861 36.559 9.82891L34.5699 9.62109C34.4574 10.6973 34.2909 11.6145 34.0765 12.3804L36.0024 12.9196ZM36.5592 9.8274C36.6784 8.66964 36.763 7.4229 36.8137 6.08795L34.8152 6.01205C34.7659 7.31043 34.6839 8.5137 34.5697 9.6226L36.5592 9.8274ZM36.8138 6.08601L37.0138 0.536011L35.0151 0.463986L34.8151 6.01399L36.8138 6.08601ZM36.0145 1.5H48.8395V-0.500001H36.0145V1.5ZM47.8395 0.499999V16.5H49.8395V0.499999H47.8395ZM48.8395 15.5H45.6395V17.5H48.8395V15.5ZM32.9144 21.7289L32.9394 15.2539L30.9395 15.2461L30.9145 21.7211L32.9144 21.7289ZM31.9395 16.25H51.3645V14.25H31.9395V16.25ZM50.3645 15.25V21.725H52.3645V15.25H50.3645ZM51.3645 20.725H48.3645V22.725H51.3645V20.725ZM49.3645 21.725V18H47.3645V21.725H49.3645ZM48.3645 17H34.9395V19H48.3645V17ZM33.9395 18V21.725H35.9395V18H33.9395ZM34.9395 20.725H31.9145V22.725H34.9395V20.725ZM66.6996 7.825L66.0639 8.59693L66.6996 7.825ZM66.5246 16.5L67.1544 17.2768L67.1556 17.2758L66.5246 16.5ZM53.8246 18H52.8246V19H53.8246V18ZM53.8246 0.499999V-0.500001H52.8246V0.499999H53.8246ZM57.0246 0.499999H58.0246V-0.500001H57.0246V0.499999ZM57.0246 6.425H56.0246V7.425H57.0246V6.425ZM64.0996 14.625L63.4594 13.8567L63.4503 13.8644L64.0996 14.625ZM64.1246 9.675L63.5215 10.4727L63.5278 10.4774L63.5341 10.482L64.1246 9.675ZM57.0246 8.9V7.9H56.0246V8.9H57.0246ZM57.0246 15.5H56.0246V16.5H57.0246V15.5ZM61.8746 7.425C63.8215 7.425 65.1716 7.86206 66.0639 8.59693L67.3353 7.05307C65.961 5.92127 64.0944 5.425 61.8746 5.425V7.425ZM66.0639 8.59693C66.9063 9.29069 67.3996 10.3692 67.3996 12.025H69.3996C69.3996 9.94748 68.7596 8.22598 67.3353 7.05307L66.0639 8.59693ZM67.3996 12.025C67.3996 13.7639 66.8588 14.9392 65.8936 15.7242L67.1556 17.2758C68.6905 16.0274 69.3996 14.2195 69.3996 12.025H67.3996ZM65.8948 15.7232C64.8986 16.531 63.4265 17 61.3496 17V19C63.706 19 65.684 18.469 67.1544 17.2768L65.8948 15.7232ZM61.3496 17H53.8246V19H61.3496V17ZM54.8246 18V0.499999H52.8246V18H54.8246ZM53.8246 1.5H57.0246V-0.500001H53.8246V1.5ZM56.0246 0.499999V6.425H58.0246V0.499999H56.0246ZM57.0246 7.425H61.8746V5.425H57.0246V7.425ZM61.1996 16.5C62.595 16.5 63.8247 16.1745 64.7489 15.3856L63.4503 13.8644C63.0078 14.2422 62.3042 14.5 61.1996 14.5V16.5ZM64.7398 15.3932C65.7187 14.5775 66.1496 13.4151 66.1496 12.075H64.1496C64.1496 12.9682 63.8805 13.5059 63.4594 13.8568L64.7398 15.3932ZM66.1496 12.075C66.1496 10.761 65.7301 9.61067 64.7151 8.86797L63.5341 10.482C63.8857 10.7393 64.1496 11.189 64.1496 12.075H66.1496ZM64.7277 8.87734C63.8052 8.17983 62.5843 7.9 61.1996 7.9V9.9C62.3483 9.9 63.0773 10.1368 63.5215 10.4727L64.7277 8.87734ZM61.1996 7.9H57.0246V9.9H61.1996V7.9ZM56.0246 8.9V15.5H58.0246V8.9H56.0246ZM57.0246 16.5H61.1996V14.5H57.0246V16.5ZM77.4037 18H76.4037V19H77.4037V18ZM77.4037 0.499999V-0.500001H76.4037V0.499999H77.4037ZM89.8287 1.675L89.2486 2.48961L89.2569 2.4954L89.8287 1.675ZM89.9037 8.325L90.4934 9.13267L90.5017 9.12652L89.9037 8.325ZM85.7537 9.475L84.8593 9.02779L84.1357 10.475H85.7537V9.475ZM86.2037 8.575V7.575H85.5857L85.3093 8.12779L86.2037 8.575ZM90.6537 16.725L91.2594 17.5207L91.2668 17.515L90.6537 16.725ZM80.6037 15.5H79.6037V16.5H80.6037V15.5ZM88.1787 14.875L88.7599 15.6887L88.7675 15.6833L88.775 15.6777L88.1787 14.875ZM88.1787 10.975L87.5975 11.7887L87.6053 11.7943L87.6132 11.7997L88.1787 10.975ZM80.6037 10.35V9.35H79.6037V10.35H80.6037ZM80.6037 7.975H79.6037V8.975H80.6037V7.975ZM87.3537 7.35L87.9576 8.14709L87.9651 8.14136L87.9726 8.13549L87.3537 7.35ZM87.3537 3.625L87.9576 2.82791L87.9576 2.82791L87.3537 3.625ZM80.6037 3V2H79.6037V3H80.6037ZM78.4037 18V0.499999H76.4037V18H78.4037ZM77.4037 1.5H85.2287V-0.500001H77.4037V1.5ZM85.2287 1.5C87.0781 1.5 88.3793 1.87052 89.2486 2.48956L90.4088 0.860432C89.0781 -0.087188 87.3126 -0.500001 85.2287 -0.500001V1.5ZM89.2569 2.4954C90.0639 3.05785 90.4787 3.84572 90.4787 5H92.4787C92.4787 3.25427 91.7935 1.82548 90.4005 0.8546L89.2569 2.4954ZM90.4787 5C90.4787 6.15206 90.0764 6.94855 89.3057 7.52347L90.5017 9.12652C91.831 8.13479 92.4787 6.7146 92.4787 5H90.4787ZM89.314 7.51737C88.4827 8.12438 87.3259 8.475 85.7537 8.475V10.475C87.6149 10.475 89.2247 10.0589 90.4934 9.13263L89.314 7.51737ZM86.6481 9.92221L87.0981 9.02221L85.3093 8.12779L84.8593 9.02779L86.6481 9.92221ZM86.2037 9.575C88.037 9.575 89.3058 9.94573 90.1368 10.556L91.3206 8.944C90.0183 7.9876 88.2704 7.575 86.2037 7.575V9.575ZM90.1368 10.556C90.9132 11.1261 91.3287 11.9406 91.3287 13.15H93.3287C93.3287 11.3927 92.6776 9.94052 91.3206 8.944L90.1368 10.556ZM91.3287 13.15C91.3287 14.3838 90.8933 15.2732 90.0406 15.935L91.2668 17.515C92.6474 16.4435 93.3287 14.9496 93.3287 13.15H91.3287ZM90.048 15.9293C89.1785 16.5912 87.7823 17 85.7037 17V19C87.9917 19 89.8956 18.5588 91.2594 17.5207L90.048 15.9293ZM85.7037 17H77.4037V19H85.7037V17ZM80.6037 16.5H85.6037V14.5H80.6037V16.5ZM85.6037 16.5C86.8334 16.5 87.9343 16.2785 88.7599 15.6887L87.5975 14.0613C87.2565 14.3048 86.6407 14.5 85.6037 14.5V16.5ZM88.775 15.6777C89.668 15.0144 90.0537 14.0232 90.0537 12.9H88.0537C88.0537 13.5434 87.856 13.869 87.5824 14.0723L88.775 15.6777ZM90.0537 12.9C90.0537 11.7795 89.6678 10.7836 88.7442 10.1503L87.6132 11.7997C87.8562 11.9664 88.0537 12.2538 88.0537 12.9H90.0537ZM88.7599 10.1613C87.9343 9.57148 86.8334 9.35 85.6037 9.35V11.35C86.6407 11.35 87.2565 11.5452 87.5975 11.7887L88.7599 10.1613ZM85.6037 9.35H80.6037V11.35H85.6037V9.35ZM79.6037 10.35V15.5H81.6037V10.35H79.6037ZM80.6037 8.975H84.9537V6.975H80.6037V8.975ZM84.9537 8.975C86.1141 8.975 87.1641 8.74823 87.9576 8.14709L86.7499 6.55291C86.4434 6.7851 85.8933 6.975 84.9537 6.975V8.975ZM87.9726 8.13549C88.7996 7.48394 89.1787 6.55699 89.1787 5.5H87.1787C87.1787 6.04301 87.0079 6.3494 86.7348 6.56451L87.9726 8.13549ZM89.1787 5.5C89.1787 4.42642 88.8099 3.47364 87.9576 2.82791L86.7499 4.42209C86.9975 4.60969 87.1787 4.90691 87.1787 5.5H89.1787ZM87.9576 2.82791C87.1641 2.22677 86.1141 2 84.9537 2V4C85.8933 4 86.4434 4.1899 86.7499 4.42209L87.9576 2.82791ZM84.9537 2H80.6037V4H84.9537V2ZM79.6037 3V7.975H81.6037V3H79.6037ZM95.4311 18H94.4311V19H95.4311V18ZM95.4311 0.499999V-0.500001H94.4311V0.499999H95.4311ZM98.0811 0.499999L98.9383 -0.0149902L98.6469 -0.500001H98.0811V0.499999ZM105.756 13.275V14.275H107.523L106.613 12.76L105.756 13.275ZM104.331 13.275L103.47 12.7662L102.578 14.275H104.331V13.275ZM111.881 0.499999V-0.500001H111.31L111.02 -0.00878727L111.881 0.499999ZM114.531 0.499999L115.531 0.497142L115.528 -0.500001H114.531V0.499999ZM114.581 18V19H115.584L115.581 17.9971L114.581 18ZM111.481 18L110.481 18.002L110.483 19H111.481V18ZM111.456 5.325V4.325H110.454L110.456 5.32697L111.456 5.325ZM112.106 5.325L112.964 5.8392L113.872 4.325H112.106V5.325ZM105.706 16V17H106.272L106.564 16.5142L105.706 16ZM104.256 16L103.402 16.5201L103.694 17H104.256V16ZM97.7561 5.325V4.325H95.9764L96.9019 5.84507L97.7561 5.325ZM98.5061 5.325H99.5061V4.325H98.5061V5.325ZM98.5061 18V19H99.5061V18H98.5061ZM96.4311 18V0.499999H94.4311V18H96.4311ZM95.4311 1.5H98.0811V-0.500001H95.4311V1.5ZM97.2239 1.01499L104.899 13.79L106.613 12.76L98.9383 -0.0149902L97.2239 1.01499ZM105.756 12.275H104.331V14.275H105.756V12.275ZM105.192 13.7838L112.742 1.00878L111.02 -0.00878727L103.47 12.7662L105.192 13.7838ZM111.881 1.5H114.531V-0.500001H111.881V1.5ZM113.531 0.502856L113.581 18.0029L115.581 17.9971L115.531 0.497142L113.531 0.502856ZM114.581 17H111.481V19H114.581V17ZM112.481 17.998L112.456 5.32303L110.456 5.32697L110.481 18.002L112.481 17.998ZM111.456 6.325H112.106V4.325H111.456V6.325ZM111.248 4.8108L104.848 15.4858L106.564 16.5142L112.964 5.8392L111.248 4.8108ZM105.706 15H104.256V17H105.706V15ZM105.11 15.4799L98.6102 4.80493L96.9019 5.84507L103.402 16.5201L105.11 15.4799ZM97.7561 6.325H98.5061V4.325H97.7561V6.325ZM97.5061 5.325V18H99.5061V5.325H97.5061ZM98.5061 17H95.4311V19H98.5061V17ZM121.853 7.775V6.775H120.853V7.775H121.853ZM130.553 7.775H131.553V6.775H130.553V7.775ZM130.553 10.45V11.45H131.553V10.45H130.553ZM121.853 10.45H120.853V11.45H121.853V10.45ZM122.103 15.275H121.103V16.275H122.103V15.275ZM131.978 15.275H132.978V14.275H131.978V15.275ZM131.978 18V19H132.978V18H131.978ZM118.853 18H117.853V19H118.853V18ZM118.853 0.499999V-0.500001H117.853V0.499999H118.853ZM131.628 0.499999H132.628V-0.500001H131.628V0.499999ZM131.628 3.225V4.225H132.628V3.225H131.628ZM122.103 3.225V2.225H121.103V3.225H122.103ZM121.853 8.775H130.553V6.775H121.853V8.775ZM129.553 7.775V10.45H131.553V7.775H129.553ZM130.553 9.45H121.853V11.45H130.553V9.45ZM122.853 10.45V7.775H120.853V10.45H122.853ZM122.103 16.275H131.978V14.275H122.103V16.275ZM130.978 15.275V18H132.978V15.275H130.978ZM131.978 17H118.853V19H131.978V17ZM119.853 18V0.499999H117.853V18H119.853ZM118.853 1.5H131.628V-0.500001H118.853V1.5ZM130.628 0.499999V3.225H132.628V0.499999H130.628ZM131.628 2.225H122.103V4.225H131.628V2.225ZM121.103 3.225V15.275H123.103V3.225H121.103ZM139.301 17.6L138.932 18.5294L138.941 18.5327L138.949 18.5358L139.301 17.6ZM136.326 15.725L135.626 16.4392L135.634 16.4463L135.641 16.4532L136.326 15.725ZM134.376 12.85L133.456 13.2405L134.376 12.85ZM134.376 5.65L133.456 5.25945L134.376 5.65ZM136.351 2.8L137.037 3.52824L137.044 3.5211L136.351 2.8ZM139.326 0.924999L139.684 1.85913L139.695 1.85442L139.326 0.924999ZM146.976 1L146.587 1.92121L146.598 1.92575L146.976 1ZM149.976 3.175L150.661 3.90345L151.352 3.2539L150.74 2.52965L149.976 3.175ZM147.876 5.15L147.143 5.82976L147.828 6.56856L148.561 5.87845L147.876 5.15ZM145.751 3.625L145.343 4.53801L145.352 4.54165L145.36 4.54515L145.751 3.625ZM140.676 3.55L140.312 2.61873L140.305 2.62152L140.676 3.55ZM138.701 4.825L138.005 4.10742L138 4.11262L137.994 4.11789L138.701 4.825ZM137.401 6.775L136.48 6.38603L136.476 6.39478L136.473 6.40361L137.401 6.775ZM137.401 11.725L136.473 12.0964L136.476 12.1052L136.48 12.114L137.401 11.725ZM138.701 13.675L137.994 14.3821L138 14.3874L138.005 14.3926L138.701 13.675ZM140.676 14.95L140.305 15.8785L140.312 15.8812L140.676 14.95ZM145.751 14.9L146.143 15.8202L146.151 15.8167L146.159 15.813L145.751 14.9ZM147.876 13.325L148.566 12.6009L147.823 11.8933L147.135 12.6541L147.876 13.325ZM149.976 15.325L150.735 15.9769L151.354 15.2562L150.666 14.6009L149.976 15.325ZM146.976 17.5L146.587 16.5789L146.976 17.5ZM143.026 17.25C141.803 17.25 140.682 17.0516 139.654 16.6642L138.949 18.5358C140.221 19.015 141.583 19.25 143.026 19.25V17.25ZM139.67 16.6706C138.649 16.265 137.766 15.7065 137.012 14.9968L135.641 16.4532C136.587 17.3435 137.687 18.035 138.932 18.5294L139.67 16.6706ZM137.026 15.0108C136.289 14.2887 135.713 13.4411 135.297 12.4594L133.456 13.2405C133.973 14.4589 134.697 15.528 135.626 16.4392L137.026 15.0108ZM135.297 12.4594C134.887 11.4935 134.676 10.4277 134.676 9.25H132.676C132.676 10.6723 132.932 12.0065 133.456 13.2405L135.297 12.4594ZM134.676 9.25C134.676 8.07229 134.887 7.00651 135.297 6.04055L133.456 5.25945C132.932 6.49349 132.676 7.82771 132.676 9.25H134.676ZM135.297 6.04055C135.711 5.06509 136.29 4.23089 137.037 3.5282L135.666 2.0718C134.713 2.96911 133.975 4.03491 133.456 5.25945L135.297 6.04055ZM137.044 3.5211C137.795 2.79992 138.671 2.24602 139.684 1.85905L138.969 -0.0090524C137.715 0.470647 136.608 1.16675 135.659 2.07889L137.044 3.5211ZM139.695 1.85442C140.699 1.45579 141.814 1.25 143.051 1.25V-0.750001C141.589 -0.750001 140.22 -0.505797 138.957 -0.00441694L139.695 1.85442ZM143.051 1.25C144.366 1.25 145.54 1.47889 146.587 1.92115L147.366 0.0788538C146.046 -0.478896 144.603 -0.750001 143.051 -0.750001V1.25ZM146.598 1.92575C147.634 2.34874 148.501 2.97818 149.212 3.82035L150.74 2.52965C149.818 1.43848 148.686 0.617926 147.354 0.0742452L146.598 1.92575ZM149.291 2.44654L147.191 4.42155L148.561 5.87845L150.661 3.90345L149.291 2.44654ZM148.61 4.47024C147.89 3.69344 147.068 3.09836 146.143 2.70484L145.36 4.54515C146.002 4.8183 146.596 5.23989 147.143 5.82976L148.61 4.47024ZM146.159 2.71199C145.239 2.30078 144.249 2.1 143.201 2.1V4.1C143.987 4.1 144.697 4.24922 145.343 4.53801L146.159 2.71199ZM143.201 2.1C142.174 2.1 141.207 2.26845 140.312 2.61876L141.041 4.48124C141.679 4.23155 142.395 4.1 143.201 4.1V2.1ZM140.305 2.62152C139.437 2.96882 138.667 3.46449 138.005 4.10742L139.398 5.54258C139.869 5.08551 140.416 4.73118 141.048 4.47848L140.305 2.62152ZM137.994 4.11789C137.349 4.76336 136.845 5.5228 136.48 6.38603L138.323 7.16397C138.591 6.5272 138.954 5.98664 139.408 5.53211L137.994 4.11789ZM136.473 6.40361C136.121 7.28449 135.951 8.23728 135.951 9.25H137.951C137.951 8.46272 138.082 7.76551 138.33 7.14639L136.473 6.40361ZM135.951 9.25C135.951 10.2627 136.121 11.2155 136.473 12.0964L138.33 11.3536C138.082 10.7345 137.951 10.0373 137.951 9.25H135.951ZM136.48 12.114C136.845 12.9772 137.349 13.7366 137.994 14.3821L139.408 12.9679C138.954 12.5134 138.591 11.9728 138.323 11.336L136.48 12.114ZM138.005 14.3926C138.667 15.0355 139.437 15.5312 140.305 15.8785L141.048 14.0215C140.416 13.7688 139.869 13.4145 139.398 12.9574L138.005 14.3926ZM140.312 15.8812C141.207 16.2316 142.174 16.4 143.201 16.4V14.4C142.395 14.4 141.679 14.2684 141.041 14.0188L140.312 15.8812ZM143.201 16.4C144.242 16.4 145.227 16.2101 146.143 15.8202L145.36 13.9798C144.71 14.2565 143.994 14.4 143.201 14.4V16.4ZM146.159 15.813C147.082 15.4009 147.901 14.7885 148.618 13.9959L147.135 12.6541C146.585 13.2615 145.988 13.6991 145.343 13.987L146.159 15.813ZM147.187 14.0491L149.287 16.0491L150.666 14.6009L148.566 12.6009L147.187 14.0491ZM149.218 14.6731C148.505 15.503 147.632 16.1373 146.587 16.5789L147.366 18.4211C148.687 17.8627 149.815 17.047 150.735 15.9769L149.218 14.6731ZM146.587 16.5789C145.542 17.0205 144.36 17.25 143.026 17.25V19.25C144.593 19.25 146.044 18.9795 147.366 18.4211L146.587 16.5789ZM155.849 18H154.849V19H155.849V18ZM155.849 2.45L156.567 1.7542L154.849 -0.0194627V2.45H155.849ZM156.624 3.25V4.25H158.985L157.342 2.5542L156.624 3.25ZM150.074 3.25H149.074V4.25H150.074V3.25ZM150.074 0.499999V-0.500001H149.074V0.499999H150.074ZM164.874 0.499999H165.874V-0.500001H164.874V0.499999ZM164.874 3.25V4.25H165.874V3.25H164.874ZM158.324 3.25L157.594 2.56606L156.015 4.25H158.324V3.25ZM159.074 2.45H160.074V-0.078782L158.344 1.76606L159.074 2.45ZM159.074 18V19H160.074V18H159.074ZM156.849 18V2.45H154.849V18H156.849ZM155.13 3.14579L155.905 3.94579L157.342 2.5542L156.567 1.7542L155.13 3.14579ZM156.624 2.25H150.074V4.25H156.624V2.25ZM151.074 3.25V0.499999H149.074V3.25H151.074ZM150.074 1.5H164.874V-0.500001H150.074V1.5ZM163.874 0.499999V3.25H165.874V0.499999H163.874ZM164.874 2.25H158.324V4.25H164.874V2.25ZM159.053 3.93394L159.803 3.13394L158.344 1.76606L157.594 2.56606L159.053 3.93394ZM158.074 2.45V18H160.074V2.45H158.074ZM159.074 17H155.849V19H159.074V17ZM170.052 7.775V6.775H169.052V7.775H170.052ZM178.752 7.775H179.752V6.775H178.752V7.775ZM178.752 10.45V11.45H179.752V10.45H178.752ZM170.052 10.45H169.052V11.45H170.052V10.45ZM170.302 15.275H169.302V16.275H170.302V15.275ZM180.177 15.275H181.177V14.275H180.177V15.275ZM180.177 18V19H181.177V18H180.177ZM167.052 18H166.052V19H167.052V18ZM167.052 0.499999V-0.500001H166.052V0.499999H167.052ZM179.827 0.499999H180.827V-0.500001H179.827V0.499999ZM179.827 3.225V4.225H180.827V3.225H179.827ZM170.302 3.225V2.225H169.302V3.225H170.302ZM170.052 8.775H178.752V6.775H170.052V8.775ZM177.752 7.775V10.45H179.752V7.775H177.752ZM178.752 9.45H170.052V11.45H178.752V9.45ZM171.052 10.45V7.775H169.052V10.45H171.052ZM170.302 16.275H180.177V14.275H170.302V16.275ZM179.177 15.275V18H181.177V15.275H179.177ZM180.177 17H167.052V19H180.177V17ZM168.052 18V0.499999H166.052V18H168.052ZM167.052 1.5H179.827V-0.500001H167.052V1.5ZM178.827 0.499999V3.225H180.827V0.499999H178.827ZM179.827 2.225H170.302V4.225H179.827V2.225ZM169.302 3.225V15.275H171.302V3.225H169.302ZM193.784 17.6L193.415 18.5294L193.423 18.5327L193.431 18.5358L193.784 17.6ZM190.809 15.725L190.109 16.4392L190.116 16.4463L190.123 16.4532L190.809 15.725ZM188.859 12.85L187.938 13.2405L188.859 12.85ZM188.859 5.65L187.938 5.25945L188.859 5.65ZM190.834 2.8L191.519 3.52824L191.527 3.5211L190.834 2.8ZM193.809 0.924999L194.166 1.85913L194.178 1.85442L193.809 0.924999ZM201.459 1L201.07 1.92121L201.081 1.92575L201.459 1ZM204.459 3.175L205.144 3.90345L205.835 3.2539L205.223 2.52965L204.459 3.175ZM202.359 5.15L201.625 5.82976L202.31 6.56856L203.044 5.87845L202.359 5.15ZM200.234 3.625L199.826 4.53801L199.834 4.54165L199.842 4.54515L200.234 3.625ZM195.159 3.55L194.794 2.61873L194.787 2.62152L195.159 3.55ZM193.184 4.825L192.487 4.10742L192.482 4.11262L192.477 4.11789L193.184 4.825ZM191.884 6.775L190.963 6.38603L190.959 6.39478L190.955 6.40361L191.884 6.775ZM191.884 11.725L190.955 12.0964L190.959 12.1052L190.963 12.114L191.884 11.725ZM193.184 13.675L192.477 14.3821L192.482 14.3874L192.487 14.3926L193.184 13.675ZM195.159 14.95L194.787 15.8785L194.794 15.8812L195.159 14.95ZM200.234 14.9L200.625 15.8202L200.634 15.8167L200.642 15.813L200.234 14.9ZM202.359 13.325L203.048 12.6009L202.306 11.8933L201.617 12.6541L202.359 13.325ZM204.459 15.325L205.217 15.9769L205.837 15.2562L205.148 14.6009L204.459 15.325ZM201.459 17.5L201.07 16.5789L201.459 17.5ZM197.509 17.25C196.286 17.25 195.164 17.0516 194.136 16.6642L193.431 18.5358C194.703 19.015 196.065 19.25 197.509 19.25V17.25ZM194.153 16.6706C193.131 16.265 192.248 15.7065 191.494 14.9968L190.123 16.4532C191.069 17.3435 192.17 18.035 193.415 18.5294L194.153 16.6706ZM191.509 15.0108C190.772 14.2887 190.196 13.4411 189.779 12.4594L187.938 13.2405C188.455 14.4589 189.179 15.528 190.109 16.4392L191.509 15.0108ZM189.779 12.4594C189.37 11.4935 189.159 10.4277 189.159 9.25H187.159C187.159 10.6723 187.415 12.0065 187.938 13.2405L189.779 12.4594ZM189.159 9.25C189.159 8.07229 189.37 7.00651 189.779 6.04055L187.938 5.25945C187.415 6.49349 187.159 7.82771 187.159 9.25H189.159ZM189.779 6.04055C190.193 5.06509 190.773 4.23089 191.519 3.5282L190.148 2.0718C189.195 2.96911 188.458 4.03491 187.938 5.25945L189.779 6.04055ZM191.527 3.5211C192.277 2.79992 193.154 2.24602 194.166 1.85905L193.452 -0.0090524C192.197 0.470647 191.09 1.16675 190.141 2.07889L191.527 3.5211ZM194.178 1.85442C195.182 1.45579 196.297 1.25 197.534 1.25V-0.750001C196.071 -0.750001 194.702 -0.505797 193.44 -0.00441694L194.178 1.85442ZM197.534 1.25C198.849 1.25 200.023 1.47889 201.07 1.92115L201.848 0.0788538C200.528 -0.478896 199.085 -0.750001 197.534 -0.750001V1.25ZM201.081 1.92575C202.116 2.34874 202.983 2.97818 203.695 3.82035L205.223 2.52965C204.301 1.43848 203.168 0.617926 201.837 0.0742452L201.081 1.92575ZM203.774 2.44654L201.674 4.42155L203.044 5.87845L205.144 3.90345L203.774 2.44654ZM203.092 4.47024C202.372 3.69344 201.55 3.09836 200.625 2.70484L199.842 4.54515C200.484 4.8183 201.079 5.23989 201.625 5.82976L203.092 4.47024ZM200.642 2.71199C199.721 2.30078 198.731 2.1 197.684 2.1V4.1C198.47 4.1 199.18 4.24922 199.826 4.53801L200.642 2.71199ZM197.684 2.1C196.657 2.1 195.69 2.26845 194.794 2.61876L195.523 4.48124C196.161 4.23155 196.878 4.1 197.684 4.1V2.1ZM194.787 2.62152C193.919 2.96882 193.15 3.46449 192.487 4.10742L193.88 5.54258C194.351 5.08551 194.898 4.73118 195.53 4.47848L194.787 2.62152ZM192.477 4.11789C191.831 4.76336 191.327 5.5228 190.963 6.38603L192.805 7.16397C193.074 6.5272 193.436 5.98664 193.891 5.53211L192.477 4.11789ZM190.955 6.40361C190.603 7.28449 190.434 8.23728 190.434 9.25H192.434C192.434 8.46272 192.565 7.76551 192.812 7.14639L190.955 6.40361ZM190.434 9.25C190.434 10.2627 190.603 11.2155 190.955 12.0964L192.812 11.3536C192.565 10.7345 192.434 10.0373 192.434 9.25H190.434ZM190.963 12.114C191.327 12.9772 191.831 13.7366 192.477 14.3821L193.891 12.9679C193.436 12.5134 193.074 11.9728 192.805 11.336L190.963 12.114ZM192.487 14.3926C193.15 15.0355 193.919 15.5312 194.787 15.8785L195.53 14.0215C194.898 13.7688 194.351 13.4145 193.88 12.9574L192.487 14.3926ZM194.794 15.8812C195.69 16.2316 196.657 16.4 197.684 16.4V14.4C196.878 14.4 196.161 14.2684 195.523 14.0188L194.794 15.8812ZM197.684 16.4C198.725 16.4 199.709 16.2101 200.625 15.8202L199.842 13.9798C199.192 14.2565 198.476 14.4 197.684 14.4V16.4ZM200.642 15.813C201.564 15.4009 202.383 14.7885 203.1 13.9959L201.617 12.6541C201.068 13.2615 200.47 13.6991 199.826 13.987L200.642 15.813ZM201.669 14.0491L203.769 16.0491L205.148 14.6009L203.048 12.6009L201.669 14.0491ZM203.7 14.6731C202.987 15.503 202.114 16.1373 201.07 16.5789L201.848 18.4211C203.17 17.8627 204.297 17.047 205.217 15.9769L203.7 14.6731ZM201.07 16.5789C200.024 17.0205 198.842 17.25 197.509 17.25V19.25C199.075 19.25 200.527 18.9795 201.848 18.4211L201.07 16.5789ZM0.35 41H-0.65V42H0.35V41ZM0.35 23.5V22.5H-0.65V23.5H0.35ZM13.35 24.75L12.7461 25.5471L12.7539 25.5529L13.35 24.75ZM14.35 30.45L15.1821 31.0047L15.1884 30.995L14.35 30.45ZM12.6 31.975L13.0389 32.8736L13.0472 32.8694L12.6 31.975ZM10.25 32.5L9.35557 32.0528L8.63197 33.5H10.25V32.5ZM10.7 31.6V30.6H10.082L9.80557 31.1528L10.7 31.6ZM13.35 32.15L12.9261 33.0557L12.934 33.0594L12.9421 33.063L13.35 32.15ZM15.2 33.7L14.3648 34.25L14.3695 34.257L14.3742 34.264L15.2 33.7ZM3.6 38.45H2.6V39.45H3.6V38.45ZM11.65 37.85L11.1259 36.9983H11.1259L11.65 37.85ZM11.65 34.025L11.1103 34.8669L11.1181 34.8718L11.1259 34.8767L11.65 34.025ZM3.35 33.4H2.35V34.4H3.35V33.4ZM3.35 30.875V29.875H2.35V30.875H3.35ZM10.8 30.275L10.2558 29.436L10.2453 29.4429L10.8 30.275ZM10.8 26.65L10.2453 27.4821L10.2558 27.489L10.8 26.65ZM3.6 26.05V25.05H2.6V26.05H3.6ZM1.35 41V23.5H-0.65V41H1.35ZM0.35 24.5H8.55V22.5H0.35V24.5ZM8.55 24.5C10.5396 24.5 11.8897 24.8982 12.7461 25.5471L13.9539 23.9529C12.6104 22.9351 10.7604 22.5 8.55 22.5V24.5ZM12.7539 25.5529C13.5969 26.1788 14 26.9795 14 28.05H16C16 26.3538 15.3031 24.9546 13.9461 23.9471L12.7539 25.5529ZM14 28.05C14 28.8241 13.8222 29.4271 13.5116 29.905L15.1884 30.995C15.7445 30.1396 16 29.1425 16 28.05H14ZM13.518 29.8953C13.186 30.3932 12.7385 30.7877 12.1528 31.0806L13.0472 32.8694C13.9282 32.4289 14.6473 31.8068 15.1821 31.0047L13.518 29.8953ZM12.1612 31.0764C11.5901 31.3553 10.9581 31.5 10.25 31.5V33.5C11.2419 33.5 12.1766 33.2947 13.0388 32.8736L12.1612 31.0764ZM11.1444 32.9472L11.5944 32.0472L9.80557 31.1528L9.35557 32.0528L11.1444 32.9472ZM10.7 32.6C11.5569 32.6 12.2925 32.7591 12.9261 33.0557L13.7739 31.2443C12.8408 30.8075 11.8098 30.6 10.7 30.6V32.6ZM12.9421 33.063C13.5602 33.3392 14.0249 33.7339 14.3648 34.25L16.0352 33.15C15.4751 32.2995 14.7065 31.6608 13.7579 31.237L12.9421 33.063ZM14.3742 34.264C14.7037 34.7465 14.9 35.3881 14.9 36.25H16.9C16.9 35.0786 16.6296 34.0202 16.0258 33.136L14.3742 34.264ZM14.9 36.25C14.9 37.4506 14.462 38.3071 13.5882 38.9403L14.7618 40.5597C16.188 39.5262 16.9 38.0494 16.9 36.25H14.9ZM13.5882 38.9403C12.6835 39.5959 11.2219 40 9.05 40V42C11.4114 42 13.3665 41.5708 14.7618 40.5597L13.5882 38.9403ZM9.05 40H0.35V42H9.05V40ZM3.6 39.45H8.85V37.45H3.6V39.45ZM8.85 39.45C10.1518 39.45 11.2989 39.2403 12.1741 38.7017L11.1259 36.9983C10.7011 37.2597 9.9815 37.45 8.85 37.45V39.45ZM12.1741 38.7017C13.1709 38.0882 13.625 37.0911 13.625 35.925H11.625C11.625 36.5256 11.4291 36.8118 11.1259 36.9983L12.1741 38.7017ZM13.625 35.925C13.625 34.7669 13.1645 33.7828 12.1741 33.1733L11.1259 34.8767C11.4355 35.0672 11.625 35.3497 11.625 35.925H13.625ZM12.1897 33.1831C11.3107 32.6197 10.157 32.4 8.85 32.4V34.4C9.97631 34.4 10.6893 34.597 11.1103 34.8669L12.1897 33.1831ZM8.85 32.4H3.35V34.4H8.85V32.4ZM4.35 33.4V30.875H2.35V33.4H4.35ZM3.35 31.875H8.2V29.875H3.35V31.875ZM8.2 31.875C9.42682 31.875 10.5212 31.6627 11.3547 31.1071L10.2453 29.4429C9.87876 29.6873 9.23984 29.875 8.2 29.875V31.875ZM11.3442 31.114C12.2738 30.511 12.725 29.5782 12.725 28.475H10.725C10.725 28.9718 10.5596 29.239 10.2558 29.436L11.3442 31.114ZM12.725 28.475C12.725 27.364 12.2805 26.4184 11.3442 25.811L10.2558 27.489C10.5528 27.6816 10.725 27.9527 10.725 28.475H12.725ZM11.3547 25.8179C10.5212 25.2623 9.42682 25.05 8.2 25.05V27.05C9.23984 27.05 9.87876 27.2377 10.2453 27.482L11.3547 25.8179ZM8.2 25.05H3.6V27.05H8.2V25.05ZM2.6 26.05V38.45H4.6V26.05H2.6ZM21.7436 30.775V29.775H20.7436V30.775H21.7436ZM30.4436 30.775H31.4436V29.775H30.4436V30.775ZM30.4436 33.45V34.45H31.4436V33.45H30.4436ZM21.7436 33.45H20.7436V34.45H21.7436V33.45ZM21.9936 38.275H20.9936V39.275H21.9936V38.275ZM31.8686 38.275H32.8686V37.275H31.8686V38.275ZM31.8686 41V42H32.8686V41H31.8686ZM18.7436 41H17.7436V42H18.7436V41ZM18.7436 23.5V22.5H17.7436V23.5H18.7436ZM31.5186 23.5H32.5186V22.5H31.5186V23.5ZM31.5186 26.225V27.225H32.5186V26.225H31.5186ZM21.9936 26.225V25.225H20.9936V26.225H21.9936ZM21.7436 31.775H30.4436V29.775H21.7436V31.775ZM29.4436 30.775V33.45H31.4436V30.775H29.4436ZM30.4436 32.45H21.7436V34.45H30.4436V32.45ZM22.7436 33.45V30.775H20.7436V33.45H22.7436ZM21.9936 39.275H31.8686V37.275H21.9936V39.275ZM30.8686 38.275V41H32.8686V38.275H30.8686ZM31.8686 40H18.7436V42H31.8686V40ZM19.7436 41V23.5H17.7436V41H19.7436ZM18.7436 24.5H31.5186V22.5H18.7436V24.5ZM30.5186 23.5V26.225H32.5186V23.5H30.5186ZM31.5186 25.225H21.9936V27.225H31.5186V25.225ZM20.9936 26.225V38.275H22.9936V26.225H20.9936ZM45.5758 40.575L45.9402 39.6438L45.5758 40.575ZM42.5758 38.7L41.8829 39.4211L41.8904 39.4282L42.5758 38.7ZM40.6008 35.85L39.6802 36.2406L39.6824 36.2456L40.6008 35.85ZM40.6008 28.675L41.5192 29.0706L41.5214 29.0655L40.6008 28.675ZM42.5758 25.825L43.2612 26.5532L43.2686 26.5461L42.5758 25.825ZM45.5758 23.925L45.9402 24.8562L45.5758 23.925ZM53.0758 23.925L52.7067 24.8544L52.7114 24.8562L53.0758 23.925ZM56.0758 25.825L55.3829 26.5461L55.3904 26.5532L56.0758 25.825ZM58.0508 28.675L57.1302 29.0656L57.1324 29.0706L58.0508 28.675ZM58.0508 35.85L57.1302 35.4594L58.0508 35.85ZM56.0758 38.7L55.3904 37.9718V37.9718L56.0758 38.7ZM53.0758 40.575L52.7114 39.6437L52.7067 39.6456L53.0758 40.575ZM51.7758 37.95L52.1472 38.8785L51.7758 37.95ZM53.7258 36.675L54.4329 37.3821L54.4382 37.3768L54.4434 37.3715L53.7258 36.675ZM55.0008 34.725L54.0795 34.336L54.0752 34.3464L55.0008 34.725ZM55.0008 29.8L54.0723 30.1714L54.0773 30.184L54.0827 30.1964L55.0008 29.8ZM53.7258 27.85L53.0082 28.5465L53.0134 28.5518L53.0187 28.5571L53.7258 27.85ZM51.7758 26.55L52.1472 25.6215L51.7758 26.55ZM46.8758 26.55L46.5044 25.6215L46.4972 25.6245L46.8758 26.55ZM44.9258 27.85L44.2187 27.1429L44.9258 27.85ZM43.6258 29.8L42.7045 29.411L42.7002 29.4214L43.6258 29.8ZM43.6258 34.7L42.6973 35.0714L42.7008 35.0802L42.7045 35.089L43.6258 34.7ZM44.9258 36.675L44.2082 37.3715L44.2134 37.3768L44.2187 37.3821L44.9258 36.675ZM46.8758 37.95L47.2472 37.0215L46.8758 37.95ZM49.3508 40.25C48.0955 40.25 46.9623 40.0437 45.9402 39.6438L45.2114 41.5062C46.4893 42.0063 47.8727 42.25 49.3508 42.25V40.25ZM45.9402 39.6438C44.9022 39.2376 44.0128 38.6792 43.2611 37.9718L41.8904 39.4282C42.8388 40.3208 43.9494 41.0124 45.2114 41.5062L45.9402 39.6438ZM43.2686 37.9789C42.5148 37.2547 41.9332 36.4154 41.5192 35.4544L39.6824 36.2456C40.2017 37.4513 40.9367 38.512 41.883 39.4211L43.2686 37.9789ZM41.5214 35.4594C41.1116 34.4935 40.9008 33.4277 40.9008 32.25H38.9008C38.9008 33.6723 39.1567 35.0065 39.6802 36.2406L41.5214 35.4594ZM40.9008 32.25C40.9008 31.0721 41.1116 30.0168 41.5192 29.0706L39.6824 28.2794C39.1566 29.4999 38.9008 30.8279 38.9008 32.25H40.9008ZM41.5214 29.0655C41.9352 28.0901 42.5145 27.2559 43.2611 26.5532L41.8904 25.0968C40.937 25.9941 40.1997 27.0599 39.6802 28.2844L41.5214 29.0655ZM43.2686 26.5461C44.0195 25.8247 44.9065 25.2607 45.9402 24.8562L45.2114 22.9938C43.9451 23.4893 42.8321 24.192 41.883 25.1039L43.2686 26.5461ZM45.9402 24.8562C46.9637 24.4557 48.0888 24.25 49.3258 24.25V22.25C47.8627 22.25 46.4879 22.4943 45.2114 22.9938L45.9402 24.8562ZM49.3258 24.25C50.5813 24.25 51.7042 24.4563 52.7067 24.8544L53.4448 22.9956C52.1807 22.4936 50.8036 22.25 49.3258 22.25V24.25ZM52.7114 24.8562C53.7451 25.2607 54.6321 25.8247 55.383 26.5461L56.7686 25.1039C55.8195 24.192 54.7065 23.4893 53.4402 22.9938L52.7114 24.8562ZM55.3904 26.5532C56.137 27.2559 56.7164 28.0901 57.1302 29.0655L58.9714 28.2844C58.4519 27.0599 57.7145 25.9941 56.7611 25.0968L55.3904 26.5532ZM57.1324 29.0706C57.5399 30.0168 57.7508 31.0721 57.7508 32.25H59.7508C59.7508 30.8279 59.4949 29.4999 58.9692 28.2794L57.1324 29.0706ZM57.7508 32.25C57.7508 33.4277 57.54 34.4935 57.1302 35.4594L58.9714 36.2406C59.4949 35.0065 59.7508 33.6723 59.7508 32.25H57.7508ZM57.1302 35.4594C56.7164 36.4349 56.137 37.2691 55.3904 37.9718L56.7611 39.4282C57.7145 38.5309 58.4519 37.4651 58.9714 36.2406L57.1302 35.4594ZM55.3904 37.9718C54.6388 38.6792 53.7494 39.2376 52.7114 39.6438L53.4402 41.5062C54.7022 41.0124 55.8128 40.3208 56.7611 39.4282L55.3904 37.9718ZM52.7067 39.6456C51.7028 40.0442 50.5879 40.25 49.3508 40.25V42.25C50.8136 42.25 52.1821 42.0058 53.4448 41.5044L52.7067 39.6456ZM49.3258 39.4C50.3244 39.4 51.2684 39.23 52.1472 38.8785L51.4044 37.0215C50.7831 37.27 50.0938 37.4 49.3258 37.4V39.4ZM52.1472 38.8785C53.018 38.5302 53.7834 38.0316 54.4329 37.3821L53.0187 35.9679C52.5681 36.4184 52.0336 36.7698 51.4044 37.0215L52.1472 38.8785ZM54.4434 37.3715C55.0827 36.7128 55.5781 35.9548 55.9263 35.1036L54.0752 34.3464C53.8234 34.9618 53.4689 35.5039 53.0082 35.9785L54.4434 37.3715ZM55.922 35.114C56.2959 34.2285 56.4758 33.2695 56.4758 32.25H54.4758C54.4758 33.0305 54.339 33.7215 54.0795 34.336L55.922 35.114ZM56.4758 32.25C56.4758 31.2309 56.296 30.277 55.9188 29.4036L54.0827 30.1964C54.3389 30.7897 54.4758 31.4691 54.4758 32.25H56.4758ZM55.9293 29.4286C55.5809 28.5578 55.0823 27.7924 54.4329 27.1429L53.0187 28.5571C53.4692 29.0076 53.8206 29.5422 54.0723 30.1714L55.9293 29.4286ZM54.4434 27.1535C53.7933 26.4837 53.0245 25.9725 52.1472 25.6215L51.4044 27.4785C52.0271 27.7275 52.5583 28.0829 53.0082 28.5465L54.4434 27.1535ZM52.1472 25.6215C51.2684 25.27 50.3244 25.1 49.3258 25.1V27.1C50.0938 27.1 50.7831 27.23 51.4044 27.4785L52.1472 25.6215ZM49.3258 25.1C48.3272 25.1 47.3831 25.27 46.5044 25.6215L47.2472 27.4785C47.8684 27.23 48.5577 27.1 49.3258 27.1V25.1ZM46.4972 25.6245C45.6395 25.9753 44.8781 26.4834 44.2187 27.1429L45.6329 28.5571C46.1068 28.0832 46.6454 27.7247 47.2544 27.4755L46.4972 25.6245ZM44.2187 27.1429C43.5732 27.7884 43.069 28.5478 42.7045 29.411L44.547 30.189C44.8159 29.5522 45.1784 29.0116 45.6329 28.5571L44.2187 27.1429ZM42.7002 29.4214C42.3448 30.2901 42.1758 31.2377 42.1758 32.25H44.1758C44.1758 31.4623 44.3067 30.7766 44.5513 30.1786L42.7002 29.4214ZM42.1758 32.25C42.1758 33.2486 42.3458 34.1927 42.6973 35.0714L44.5543 34.3286C44.3057 33.7073 44.1758 33.0181 44.1758 32.25H42.1758ZM42.7045 35.089C43.0679 35.9496 43.5692 36.7131 44.2082 37.3715L45.6434 35.9785C45.1824 35.5036 44.817 34.9504 44.547 34.311L42.7045 35.089ZM44.2187 37.3821C44.8681 38.0316 45.6336 38.5302 46.5044 38.8785L47.2472 37.0215C46.618 36.7698 46.0834 36.4184 45.6329 35.9679L44.2187 37.3821ZM46.5044 38.8785C47.3831 39.23 48.3272 39.4 49.3258 39.4V37.4C48.5577 37.4 47.8684 37.27 47.2472 37.0215L46.5044 38.8785ZM61.5707 41H60.5707V42H61.5707V41ZM61.5707 23.5V22.5H60.5707V23.5H61.5707ZM64.2457 23.5L65.0211 22.8685L64.7209 22.5H64.2457V23.5ZM75.2207 36.975V37.975H77.3249L75.9961 36.3435L75.2207 36.975ZM73.8957 36.975H72.8957V37.975H73.8957V36.975ZM73.8957 23.5V22.5H72.8957V23.5H73.8957ZM77.1207 23.5H78.1207V22.5H77.1207V23.5ZM77.1207 41V42H78.1207V41H77.1207ZM74.4457 41L73.6703 41.6315L73.9705 42H74.4457V41ZM63.4707 27.525V26.525H61.3665L62.6953 28.1565L63.4707 27.525ZM64.7957 27.525H65.7957V26.525H64.7957V27.525ZM64.7957 41V42H65.7957V41H64.7957ZM62.5707 41V23.5H60.5707V41H62.5707ZM61.5707 24.5H64.2457V22.5H61.5707V24.5ZM63.4703 24.1315L74.4453 37.6065L75.9961 36.3435L65.0211 22.8685L63.4703 24.1315ZM75.2207 35.975H73.8957V37.975H75.2207V35.975ZM74.8957 36.975V23.5H72.8957V36.975H74.8957ZM73.8957 24.5H77.1207V22.5H73.8957V24.5ZM76.1207 23.5V41H78.1207V23.5H76.1207ZM77.1207 40H74.4457V42H77.1207V40ZM75.2211 40.3685L64.2461 26.8935L62.6953 28.1565L73.6703 41.6315L75.2211 40.3685ZM63.4707 28.525H64.7957V26.525H63.4707V28.525ZM63.7957 27.525V41H65.7957V27.525H63.7957ZM64.7957 40H61.5707V42H64.7957V40ZM84.185 30.775V29.775H83.185V30.775H84.185ZM92.885 30.775H93.885V29.775H92.885V30.775ZM92.885 33.45V34.45H93.885V33.45H92.885ZM84.185 33.45H83.185V34.45H84.185V33.45ZM84.435 38.275H83.435V39.275H84.435V38.275ZM94.31 38.275H95.31V37.275H94.31V38.275ZM94.31 41V42H95.31V41H94.31ZM81.185 41H80.185V42H81.185V41ZM81.185 23.5V22.5H80.185V23.5H81.185ZM93.96 23.5H94.96V22.5H93.96V23.5ZM93.96 26.225V27.225H94.96V26.225H93.96ZM84.435 26.225V25.225H83.435V26.225H84.435ZM84.185 31.775H92.885V29.775H84.185V31.775ZM91.885 30.775V33.45H93.885V30.775H91.885ZM92.885 32.45H84.185V34.45H92.885V32.45ZM85.185 33.45V30.775H83.185V33.45H85.185ZM84.435 39.275H94.31V37.275H84.435V39.275ZM93.31 38.275V41H95.31V38.275H93.31ZM94.31 40H81.185V42H94.31V40ZM82.185 41V23.5H80.185V41H82.185ZM81.185 24.5H93.96V22.5H81.185V24.5ZM92.96 23.5V26.225H94.96V23.5H92.96ZM93.96 25.225H84.435V27.225H93.96V25.225ZM83.435 26.225V38.275H85.435V26.225H83.435Z" mask="url(#cpath-1-outside-1_389_6608)"/>
</symbol><symbol viewBox="0 0 21 20" id="cart" xmlns="http://www.w3.org/2000/svg">
    <path d="M4.66797 5.8335H16.1596C16.3925 5.8335 16.6228 5.88231 16.8356 5.97675C17.0484 6.0712 17.2391 6.20919 17.3953 6.38184C17.5516 6.55449 17.6699 6.75796 17.7427 6.97914C17.8155 7.20032 17.8411 7.4343 17.818 7.666L17.318 12.666C17.2768 13.0773 17.0844 13.4586 16.7779 13.7359C16.4715 14.0132 16.0729 14.1668 15.6596 14.1668H7.7013C7.31586 14.167 6.94228 14.0335 6.64417 13.7892C6.34606 13.5449 6.14185 13.2048 6.0663 12.8268L4.66797 5.8335Z" stroke-width="2" stroke-linejoin="round"/>
    <path d="M4.66797 5.83333L3.99297 3.13083C3.94783 2.95063 3.84376 2.79067 3.69731 2.67638C3.55085 2.56209 3.37041 2.5 3.18464 2.5H2.16797" stroke-width="2" stroke-linecap="round" stroke-linejoin="round"/>
    <path d="M7.16797 17.5H8.83463" stroke-width="2" stroke-linecap="round" stroke-linejoin="round"/>
    <path d="M13.8359 17.5H15.5026" stroke-width="2" stroke-linecap="round" stroke-linejoin="round"/>
</symbol><symbol viewBox="0 0 36 36" id="close" xmlns="http://www.w3.org/2000/svg">
    <path d="M19.4109 17.9993L26.701 10.7093C26.8648 10.518 26.9504 10.2719 26.9407 10.0202C26.9309 9.76856 26.8266 9.52982 26.6485 9.35172C26.4704 9.17363 26.2317 9.06929 25.98 9.05957C25.7283 9.04985 25.4823 9.13546 25.291 9.29928L18.0009 16.5893L10.711 9.28928C10.5196 9.12546 10.2736 9.03985 10.0219 9.04957C9.77022 9.0593 9.53148 9.16363 9.35339 9.34172C9.17529 9.51982 9.07096 9.75855 9.06124 10.0102C9.05152 10.2619 9.13712 10.508 9.30095 10.6993L16.591 17.9993L9.29095 25.2893C9.18627 25.3789 9.10125 25.4893 9.04122 25.6133C8.9812 25.7374 8.94747 25.8725 8.94215 26.0102C8.93683 26.1479 8.96004 26.2853 9.01031 26.4136C9.06059 26.5419 9.13685 26.6585 9.2343 26.7559C9.33175 26.8534 9.4483 26.9296 9.57663 26.9799C9.70495 27.0302 9.84228 27.0534 9.98 27.0481C10.1177 27.0428 10.2529 27.009 10.3769 26.949C10.501 26.889 10.6113 26.804 10.701 26.6993L18.0009 19.4093L25.291 26.6993C25.4823 26.8631 25.7283 26.9487 25.98 26.939C26.2317 26.9293 26.4704 26.8249 26.6485 26.6468C26.8266 26.4688 26.9309 26.23 26.9407 25.9783C26.9504 25.7267 26.8648 25.4806 26.701 25.2893L19.4109 17.9993Z"/>
</symbol><symbol viewBox="0 0 21 20" id="heart" xmlns="http://www.w3.org/2000/svg">
    <path d="M6.33464 2.5C4.0338 2.5 2.16797 4.34667 2.16797 6.625C2.16797 8.46417 2.89714 12.8292 10.0746 17.2417C10.2032 17.3199 10.3508 17.3613 10.5013 17.3613C10.6518 17.3613 10.7994 17.3199 10.928 17.2417C18.1055 12.8292 18.8346 8.46417 18.8346 6.625C18.8346 4.34667 16.9688 2.5 14.668 2.5C12.3671 2.5 10.5013 5 10.5013 5C10.5013 5 8.63547 2.5 6.33464 2.5Z" stroke-width="2" stroke-linecap="round" stroke-linejoin="round"/>
</symbol><symbol viewBox="0 0 35 67" id="hero-slider-arrow-left" xmlns="http://www.w3.org/2000/svg">
    <g clip-path="url(#gclip0_382_24880)">
        <path d="M33.8935 6.13589C34.1905 5.82163 34.4226 5.45196 34.5767 5.04798C34.7309 4.644 34.8039 4.21362 34.7916 3.78142C34.7794 3.34921 34.6822 2.92365 34.5055 2.52903C34.3288 2.1344 34.0761 1.77844 33.7619 1.48148C33.4476 1.18451 33.0779 0.952346 32.6739 0.798245C32.27 0.644144 31.8396 0.571122 31.4074 0.583348C30.9752 0.595574 30.5496 0.69281 30.155 0.869502C29.7604 1.04619 29.4044 1.29888 29.1074 1.61314L1.12827 31.2381C0.550461 31.8493 0.228516 32.6585 0.228516 33.4995C0.228516 34.3406 0.550461 35.1497 1.12827 35.7609L29.1074 65.3892C29.4024 65.7103 29.7583 65.9697 30.1544 66.1521C30.5505 66.3345 30.9788 66.4364 31.4146 66.4519C31.8504 66.4674 32.285 66.3961 32.693 66.2423C33.101 66.0884 33.4744 65.855 33.7915 65.5556C34.1085 65.2562 34.3629 64.8968 34.5399 64.4983C34.7169 64.0997 34.8129 63.67 34.8224 63.234C34.8319 62.798 34.7547 62.3645 34.5952 61.9587C34.4358 61.5528 34.1972 61.1826 33.8935 60.8697L8.04735 33.4995L33.8935 6.13589Z"/>
    </g>
    <defs>
        <clipPath id="gclip0_382_24880">
            <rect width="35" height="67"/>
        </clipPath>
    </defs>
</symbol><symbol viewBox="0 0 36 67" id="hero-slider-arrow-right" xmlns="http://www.w3.org/2000/svg">
    <g clip-path="url(#hclip0_382_25052)">
        <path d="M1.92875 6.13589C1.63178 5.82163 1.39962 5.45196 1.24552 5.04798C1.09142 4.644 1.01839 4.21362 1.03062 3.78142C1.04284 3.34921 1.14008 2.92365 1.31677 2.52903C1.49347 2.1344 1.74615 1.77844 2.06041 1.48148C2.37467 1.18451 2.74435 0.952346 3.14833 0.798245C3.55231 0.644144 3.98269 0.571122 4.41489 0.583348C4.84709 0.595574 5.27266 0.69281 5.66728 0.869502C6.0619 1.04619 6.41786 1.29888 6.71483 1.61314L34.694 31.2381C35.2718 31.8493 35.5938 32.6585 35.5938 33.4995C35.5938 34.3406 35.2718 35.1497 34.694 35.7609L6.71483 65.3892C6.41982 65.7103 6.06394 65.9697 5.66787 66.1521C5.27179 66.3345 4.84342 66.4364 4.40762 66.4519C3.97182 66.4674 3.53728 66.3961 3.12926 66.2423C2.72124 66.0884 2.34785 65.855 2.0308 65.5556C1.71374 65.2562 1.45934 64.8968 1.28236 64.4983C1.10537 64.0997 1.00935 63.67 0.999855 63.234C0.99036 62.798 1.06758 62.3645 1.22705 61.9587C1.38651 61.5528 1.62503 61.1826 1.92875 60.8697L27.7749 33.4995L1.92875 6.13589Z"/>
    </g>
    <defs>
        <clipPath id="hclip0_382_25052">
            <rect width="35" height="67" transform="matrix(-1 0 0 1 35.8223 0)"/>
        </clipPath>
    </defs>
</symbol><symbol viewBox="0 0 24 24" id="iconoir_arrow-up" xmlns="http://www.w3.org/2000/svg">
    <path d="M3 12L21 12M21 12L12.5 20.5M21 12L12.5 3.5" stroke-width="1.5" stroke-linecap="round" stroke-linejoin="round"/>
</symbol><symbol viewBox="0 0 26 26" id="instagram" xmlns="http://www.w3.org/2000/svg">
    <g clip-path="url(#jclip0_127_3071)">
        <path fill-rule="evenodd" clip-rule="evenodd" d="M7.67724 0.167302C9.05389 0.103927 9.49282 0.0898438 12.9996 0.0898438C16.5063 0.0898438 16.9452 0.105101 18.3207 0.167302C19.6962 0.229503 20.6351 0.448969 21.4566 0.767017C22.3169 1.09211 23.0973 1.60028 23.7428 2.2575C24.4 2.90182 24.907 3.68109 25.2309 4.54252C25.5502 5.36405 25.7685 6.30294 25.8318 7.67607C25.8952 9.05506 25.9093 9.49399 25.9093 12.9996C25.9093 16.5063 25.894 16.9452 25.8318 18.3219C25.7696 19.695 25.5502 20.6339 25.2309 21.4554C24.907 22.317 24.3992 23.0976 23.7428 23.7428C23.0973 24.4 22.3169 24.907 21.4566 25.2309C20.6351 25.5502 19.6962 25.7685 18.3231 25.8318C16.9452 25.8952 16.5063 25.9093 12.9996 25.9093C9.49282 25.9093 9.05389 25.894 7.67724 25.8318C6.30412 25.7696 5.36523 25.5502 4.5437 25.2309C3.68217 24.907 2.90161 24.3992 2.25633 23.7428C1.59955 23.0981 1.0913 22.3179 0.767017 21.4566C0.448969 20.6351 0.230677 19.6962 0.167302 18.3231C0.103927 16.9441 0.0898438 16.5051 0.0898438 12.9996C0.0898438 9.49282 0.105101 9.05389 0.167302 7.67841C0.229503 6.30294 0.448969 5.36405 0.767017 4.54252C1.09178 3.68119 1.60042 2.90101 2.2575 2.25633C2.90186 1.5997 3.68165 1.09145 4.54252 0.767017C5.36405 0.448969 6.30294 0.230677 7.67607 0.167302H7.67724ZM18.2163 2.49105C16.8549 2.42885 16.4465 2.41594 12.9996 2.41594C9.55267 2.41594 9.14425 2.42885 7.78286 2.49105C6.52358 2.54856 5.84054 2.75864 5.38518 2.93585C4.78311 3.17057 4.3524 3.44872 3.90056 3.90056C3.47224 4.31725 3.14262 4.82452 2.93585 5.38518C2.75864 5.84054 2.54856 6.52358 2.49105 7.78286C2.42885 9.14425 2.41594 9.55267 2.41594 12.9996C2.41594 16.4465 2.42885 16.8549 2.49105 18.2163C2.54856 19.4756 2.75864 20.1586 2.93585 20.614C3.14241 21.1738 3.47219 21.6819 3.90056 22.0986C4.31719 22.5269 4.82537 22.8567 5.38518 23.0633C5.84054 23.2405 6.52358 23.4506 7.78286 23.5081C9.14425 23.5703 9.5515 23.5832 12.9996 23.5832C16.4476 23.5832 16.8549 23.5703 18.2163 23.5081C19.4756 23.4506 20.1586 23.2405 20.614 23.0633C21.216 22.8286 21.6467 22.5504 22.0986 22.0986C22.5269 21.6819 22.8567 21.1738 23.0633 20.614C23.2405 20.1586 23.4506 19.4756 23.5081 18.2163C23.5703 16.8549 23.5832 16.4465 23.5832 12.9996C23.5832 9.55267 23.5703 9.14425 23.5081 7.78286C23.4506 6.52358 23.2405 5.84054 23.0633 5.38518C22.8286 4.78311 22.5504 4.3524 22.0986 3.90056C21.6819 3.47227 21.1746 3.14265 20.614 2.93585C20.1586 2.75864 19.4756 2.54856 18.2163 2.49105ZM11.3506 16.9793C12.2715 17.3626 13.2969 17.4144 14.2517 17.1257C15.2065 16.837 16.0315 16.2257 16.5857 15.3964C17.1399 14.567 17.3889 13.571 17.2903 12.5784C17.1918 11.5858 16.7516 10.6582 16.0451 9.95405C15.5947 9.50394 15.0501 9.15929 14.4505 8.94491C13.851 8.73053 13.2113 8.65176 12.5776 8.71426C11.944 8.77676 11.332 8.97898 10.7859 9.30637C10.2398 9.63375 9.77301 10.0781 9.41923 10.6076C9.06546 11.137 8.83347 11.7383 8.73996 12.3681C8.64646 12.998 8.69376 13.6407 8.87848 14.2501C9.06319 14.8594 9.38071 15.4203 9.80819 15.8922C10.2357 16.3641 10.7625 16.7354 11.3506 16.9793ZM8.30747 8.30747C8.92364 7.69129 9.65515 7.20252 10.4602 6.86905C11.2653 6.53557 12.1282 6.36394 12.9996 6.36394C13.871 6.36394 14.7338 6.53557 15.5389 6.86905C16.344 7.20252 17.0755 7.69129 17.6917 8.30747C18.3078 8.92364 18.7966 9.65515 19.1301 10.4602C19.4636 11.2653 19.6352 12.1282 19.6352 12.9996C19.6352 13.871 19.4636 14.7338 19.1301 15.5389C18.7966 16.344 18.3078 17.0755 17.6917 17.6917C16.4472 18.9361 14.7594 19.6352 12.9996 19.6352C11.2397 19.6352 9.55189 18.9361 8.30747 17.6917C7.06305 16.4472 6.36394 14.7594 6.36394 12.9996C6.36394 11.2397 7.06305 9.55189 8.30747 8.30747ZM21.1069 7.35215C21.2596 7.20811 21.3818 7.0349 21.4664 6.84277C21.5509 6.65064 21.596 6.4435 21.5991 6.23362C21.6022 6.02373 21.5631 5.81536 21.4842 5.62085C21.4053 5.42634 21.2881 5.24964 21.1397 5.10121C20.9913 4.95278 20.8146 4.83564 20.62 4.75673C20.4255 4.67782 20.2172 4.63873 20.0073 4.64179C19.7974 4.64485 19.5903 4.68999 19.3981 4.77454C19.206 4.85909 19.0328 4.98133 18.8887 5.13402C18.6086 5.43098 18.4553 5.82542 18.4612 6.23362C18.4672 6.64181 18.632 7.03161 18.9206 7.32028C19.2093 7.60894 19.5991 7.77374 20.0073 7.7797C20.4155 7.78565 20.8099 7.63228 21.1069 7.35215Z"/>
    </g>
    <defs>
        <clipPath id="jclip0_127_3071">
            <rect width="26" height="26"/>
        </clipPath>
    </defs>
</symbol><symbol viewBox="0 0 22 22" id="lock" xmlns="http://www.w3.org/2000/svg">
    <path d="M17.4167 9.16602H4.58333C3.57081 9.16602 2.75 9.98683 2.75 10.9993V18.3327C2.75 19.3452 3.57081 20.166 4.58333 20.166H17.4167C18.4292 20.166 19.25 19.3452 19.25 18.3327V10.9993C19.25 9.98683 18.4292 9.16602 17.4167 9.16602Z" stroke-width="2" stroke-linecap="round" stroke-linejoin="round"/>
    <path d="M5.5 9.16634V4.58301C5.5 3.85366 5.78973 3.15419 6.30546 2.63846C6.82118 2.12274 7.52065 1.83301 8.25 1.83301H13.75C14.4793 1.83301 15.1788 2.12274 15.6945 2.63846C16.2103 3.15419 16.5 3.85366 16.5 4.58301V5.49967" stroke-width="2" stroke-linecap="round" stroke-linejoin="round"/>
</symbol><symbol viewBox="0 0 26 26" id="tiktok" xmlns="http://www.w3.org/2000/svg">
    <rect x="1" y="1" width="24" height="24" rx="4" stroke-width="2"/>
    <path d="M18.3815 8.99385C18.2802 8.94498 18.1817 8.89141 18.0862 8.83333C17.8086 8.66207 17.5542 8.46028 17.3282 8.23232C16.7623 7.6282 16.551 7.01537 16.4737 6.5867H16.4763C16.4117 6.2302 16.4383 6 16.443 6H13.8666V15.297C13.8666 15.4214 13.8666 15.5452 13.8612 15.6672C13.8612 15.6821 13.8592 15.6958 13.8586 15.7126C13.8586 15.7188 13.8586 15.7263 13.8566 15.7331V15.7387C13.8295 16.0722 13.715 16.3944 13.5232 16.6769C13.3314 16.9594 13.0682 17.1936 12.7567 17.3588C12.4316 17.5314 12.064 17.6219 11.6901 17.6214C10.4902 17.6214 9.51695 16.7081 9.51695 15.5801C9.51695 14.4515 10.4902 13.5381 11.6901 13.5381C11.9174 13.5381 12.1434 13.5717 12.3594 13.6377L12.3627 11.1888C11.7068 11.1099 11.0404 11.1587 10.4057 11.3321C9.77098 11.5056 9.18169 11.8 8.67502 12.1968C8.23096 12.5567 7.85762 12.9862 7.57179 13.466C7.46313 13.6408 7.0525 14.3445 7.00317 15.4855C6.97184 16.1326 7.18049 16.8045 7.27981 17.0814V17.0876C7.34181 17.2506 7.58445 17.808 7.97908 18.2778C8.29732 18.6548 8.67332 18.986 9.09498 19.2608V19.2546L9.10098 19.2608C10.3475 20.0509 11.7307 19.9993 11.7307 19.9993C11.9701 19.99 12.772 19.9993 13.6826 19.5968C14.6925 19.1501 15.2671 18.485 15.2671 18.485C15.6345 18.0875 15.9266 17.6345 16.131 17.1454C16.3643 16.5731 16.4417 15.8874 16.4417 15.6137V10.6805C16.473 10.698 16.8896 10.9549 16.8896 10.9549C16.8896 10.9549 17.4896 11.3139 18.4248 11.5472C19.0954 11.7133 20 11.7488 20 11.7488V9.36155C19.6834 9.3939 19.0401 9.30058 18.3808 8.99447L18.3815 8.99385Z"/>
</symbol><symbol viewBox="0 0 18 19" id="trash" xmlns="http://www.w3.org/2000/svg">
    <g clip-path="url(#mclip0_139_13992)">
        <path d="M3 4.75H15L13.815 16.0075C13.7744 16.3949 13.5998 16.7529 13.3247 17.0129C13.0496 17.2729 12.6933 17.4167 12.324 17.4167H5.676C5.30673 17.4167 4.95042 17.2729 4.67531 17.0129C4.4002 16.7529 4.22562 16.3949 4.185 16.0075L3 4.75Z" stroke-width="2" stroke-linecap="round" stroke-linejoin="round"/>
        <path d="M5.50875 2.49105C5.63006 2.21948 5.82203 1.98992 6.06225 1.82915C6.30248 1.66837 6.58106 1.583 6.8655 1.58301H11.1345C11.4191 1.58285 11.6978 1.66815 11.9382 1.82893C12.1785 1.98972 12.3706 2.21936 12.492 2.49105L13.5 4.74967H4.5L5.50875 2.49105Z" stroke-width="2" stroke-linecap="round" stroke-linejoin="round"/>
        <path d="M1.5 4.75H16.5" stroke-width="2" stroke-linecap="round" stroke-linejoin="round"/>
        <path d="M7.5 8.70801V12.6663" stroke-width="2" stroke-linecap="round" stroke-linejoin="round"/>
        <path d="M10.5 8.70801V12.6663" stroke-width="2" stroke-linecap="round" stroke-linejoin="round"/>
    </g>
    <defs>
        <clipPath id="mclip0_139_13992">
            <rect width="18" height="19"/>
        </clipPath>
    </defs>
</symbol><symbol viewBox="0 0 26 26" id="vkontakte" xmlns="http://www.w3.org/2000/svg">
    <g clip-path="url(#nclip0_127_3076)">
        <path d="M4.82418 0C3.54626 0.00497977 2.3221 0.514839 1.41847 1.41847C0.514839 2.3221 0.00497977 3.54626 0 4.82418V21.1758C0.00497977 22.4537 0.514839 23.6779 1.41847 24.5815C2.3221 25.4852 3.54626 25.995 4.82418 26H21.1758C22.4537 25.995 23.6779 25.4852 24.5815 24.5815C25.4852 23.6779 25.995 22.4537 26 21.1758V4.82418C25.995 3.54626 25.4852 2.3221 24.5815 1.41847C23.6779 0.514839 22.4537 0.00497977 21.1758 0H4.82418ZM4.82418 2.36364H21.1758C22.5467 2.36364 23.6364 3.45327 23.6364 4.82418V21.1758C23.6364 22.5467 22.5467 23.6364 21.1758 23.6364H4.82418C4.50049 23.6384 4.17961 23.5762 3.88016 23.4532C3.58071 23.3303 3.30866 23.1491 3.07977 22.9202C2.85087 22.6913 2.66971 22.4193 2.54678 22.1198C2.42385 21.8204 2.3616 21.4995 2.36364 21.1758V4.82418C2.36364 3.45327 3.45327 2.36364 4.82418 2.36364ZM12.6679 8.54454C11.7993 8.53627 11.0606 8.54455 10.6458 8.74782C10.3681 8.88255 10.1565 9.18627 10.2854 9.20045C10.4473 9.22409 10.8113 9.30209 11.0063 9.56564C11.2545 9.90245 11.2462 10.6647 11.2462 10.6647C11.2462 10.6647 11.3845 12.7601 10.9082 13.0236C10.5808 13.2033 10.1329 12.8381 9.16382 11.1717C8.66982 10.3137 8.29636 9.36709 8.29636 9.36709C8.29636 9.36709 8.22545 9.191 8.09782 9.09882C7.94064 8.98418 7.72318 8.94636 7.72318 8.94636L5.41036 8.96054C5.41036 8.96054 5.06409 8.97473 4.94 9.12245C4.82418 9.26073 4.93055 9.53255 4.93055 9.53255C4.93055 9.53255 6.73991 13.7658 8.78918 15.899C10.6683 17.8573 12.8015 17.7273 12.8015 17.7273H13.7705C13.7705 17.7273 14.0613 17.6954 14.209 17.5382C14.3485 17.3905 14.3437 17.1127 14.3437 17.1127C14.3437 17.1127 14.3248 15.8163 14.9252 15.6225C15.5208 15.4369 16.2772 16.8775 17.0855 17.4318C17.7001 17.8514 18.1657 17.7592 18.1657 17.7592L20.3273 17.7273C20.3273 17.7273 21.4535 17.6575 20.9182 16.7665C20.8768 16.6979 20.6085 16.1117 19.3168 14.911C17.9589 13.6559 18.1397 13.8592 19.773 11.6846C20.7657 10.3598 21.1628 9.55145 21.0375 9.20045C20.9194 8.87309 20.189 8.96054 20.189 8.96054L17.7556 8.97473C17.7556 8.97473 17.576 8.95109 17.4425 9.03027C17.3506 9.09847 17.2775 9.1887 17.2297 9.29264C17.2297 9.29264 16.8421 10.3173 16.3292 11.1906C15.249 13.0272 14.8105 13.1288 14.6356 13.0142C14.2244 12.7459 14.326 11.9423 14.326 11.375C14.326 9.58809 14.5978 8.84945 13.8001 8.65682C13.5365 8.59182 13.3427 8.55045 12.6691 8.54454H12.6679Z"/>
    </g>
    <defs>
        <clipPath id="nclip0_127_3076">
            <rect width="26" height="26"/>
        </clipPath>
    </defs>
</symbol></svg>