<?xml version="1.0" encoding="utf-8"?><svg viewBox="0 0 205 67" xmlns="http://www.w3.org/2000/svg" xmlns:xlink="http://www.w3.org/1999/xlink"><style>:root>svg{display:none}:root>svg:target{display:block}</style><svg fill="none" viewBox="0 0 16 18" id="account" xmlns="http://www.w3.org/2000/svg">
    <g clip-path="url(#aa)">
        <path d="M11 10.594c-.96 0-1.423.531-3 .531s-2.036-.531-3-.531c-2.484 0-4.5 1.999-4.5 4.462v.85A1.6 1.6 0 0 0 2.107 17.5h11.786a1.6 1.6 0 0 0 1.607-1.594v-.85c0-2.463-2.016-4.462-4.5-4.462Zm2.893 5.312H2.107v-.85c0-1.58 1.3-2.868 2.893-2.868.489 0 1.282.53 3 .53 1.731 0 2.508-.53 3-.53 1.594 0 2.893 1.288 2.893 2.868v.85ZM8 10.062c2.662 0 4.821-2.141 4.821-4.78C12.821 2.641 10.661.5 8 .5 5.338.5 3.179 2.642 3.179 5.281c0 2.64 2.16 4.782 4.821 4.782Zm0-7.968c1.771 0 3.214 1.43 3.214 3.187S9.771 8.47 8 8.47 4.786 7.038 4.786 5.28c0-1.756 1.443-3.187 3.214-3.187Z" fill="#fff"/>
    </g>
    <defs>
        <clipPath id="aa">
            <path fill="#fff" transform="translate(.5 .5)" d="M0 0h15v17H0z"/>
        </clipPath>
    </defs>
</svg><svg fill="none" viewBox="0 0 18 20" id="arrow-right-bottom" xmlns="http://www.w3.org/2000/svg">
    <path d="m3 3.5 12 13m0 0V4.02m0 12.48H3.48" stroke="#fff" stroke-width="2.5" stroke-linecap="round" stroke-linejoin="round"/>
</svg><svg fill="none" viewBox="0 0 205 42" id="betogether" xmlns="http://www.w3.org/2000/svg">
    <mask id="ca" maskUnits="userSpaceOnUse" x="-1" y="-1" width="207" height="44" fill="#000">
        <path fill="#fff" d="M-1-1h207v44H-1z"/>
        <path d="M.475 18V.5H14.1v2.675H3.675v4.3H8.85c2.1 0 3.692.442 4.775 1.325 1.1.867 1.65 2.133 1.65 3.8 0 1.717-.608 3.05-1.825 4-1.2.933-2.9 1.4-5.1 1.4H.475Zm3.2-2.5h4.5c1.25 0 2.2-.242 2.85-.725.65-.483.975-1.183.975-2.1 0-1.8-1.275-2.7-3.825-2.7h-4.5V15.5Zm14.173-.25c.917.317 1.725.4 2.425.25.7-.15 1.325-.658 1.875-1.525l.85-1.325.325-.35 6.1-11.8h3.2l-7.6 14.125c-.616 1.183-1.35 2.083-2.2 2.7-.85.617-1.766.958-2.75 1.025-.966.083-1.975-.1-3.025-.55l.8-2.55Zm5.4-.15L15.448.5h3.475l6.1 12.1-1.775 2.5Zm22.391 1.4V3.25h-6.85l-.125 3.1a64.06 64.06 0 0 1-.224 3.325 19.073 19.073 0 0 1-.425 2.825c-.184.85-.442 1.558-.776 2.125-.333.567-.741.942-1.224 1.125l-3.5-.5c.633.033 1.15-.183 1.55-.65.416-.467.741-1.117.974-1.95.234-.833.409-1.808.526-2.925.116-1.133.2-2.358.25-3.675l.2-5.55H48.84v16h-3.2Zm-13.725 5.225.025-6.475h19.425v6.475h-3V18H34.94v3.725h-3.025Zm29.96-15.3c2.084 0 3.692.467 4.826 1.4 1.133.933 1.7 2.333 1.7 4.2 0 1.967-.625 3.458-1.875 4.475-1.234 1-2.959 1.5-5.175 1.5h-7.525V.5h3.2v5.925h4.85ZM61.2 15.5c1.25 0 2.216-.292 2.9-.875.7-.583 1.05-1.433 1.05-2.55 0-1.1-.342-1.9-1.025-2.4-.684-.517-1.659-.775-2.925-.775h-4.175v6.6H61.2ZM77.404 18V.5h7.825c1.966 0 3.5.392 4.6 1.175 1.1.767 1.65 1.875 1.65 3.325 0 1.433-.525 2.542-1.575 3.325-1.05.767-2.434 1.15-4.15 1.15l.45-.9c1.95 0 3.458.392 4.525 1.175 1.066.783 1.6 1.917 1.6 3.4 0 1.517-.559 2.708-1.675 3.575-1.117.85-2.767 1.275-4.95 1.275h-8.3Zm3.2-2.5h5c1.133 0 1.991-.208 2.575-.625.583-.433.875-1.092.875-1.975s-.292-1.525-.875-1.925c-.584-.417-1.442-.625-2.575-.625h-5v5.15Zm0-7.525h4.35c1.05 0 1.85-.208 2.4-.625.55-.433.825-1.05.825-1.85 0-.833-.275-1.458-.825-1.875-.55-.417-1.35-.625-2.4-.625h-4.35v4.975ZM95.43 18V.5h2.65l7.675 12.775h-1.425L111.881.5h2.65l.05 17.5h-3.1l-.025-12.675h.65L105.706 16h-1.45l-6.5-10.675h.75V18h-3.075Zm26.422-10.225h8.7v2.675h-8.7V7.775Zm.25 7.5h9.875V18h-13.125V.5h12.775v2.725h-9.525v12.05Zm20.923 2.975c-1.333 0-2.575-.217-3.725-.65a9.305 9.305 0 0 1-2.975-1.875 8.795 8.795 0 0 1-1.95-2.875c-.466-1.1-.7-2.3-.7-3.6 0-1.3.234-2.5.7-3.6a8.343 8.343 0 0 1 1.975-2.85 8.763 8.763 0 0 1 2.975-1.875c1.134-.45 2.375-.675 3.725-.675 1.434 0 2.742.25 3.925.75a7.65 7.65 0 0 1 3 2.175l-2.1 1.975c-.633-.683-1.341-1.192-2.125-1.525a6.177 6.177 0 0 0-2.55-.525c-.916 0-1.758.15-2.525.45-.75.3-1.408.725-1.975 1.275-.55.55-.983 1.2-1.3 1.95-.3.75-.45 1.575-.45 2.475 0 .9.15 1.725.45 2.475.317.75.75 1.4 1.3 1.95.567.55 1.225.975 1.975 1.275.767.3 1.609.45 2.525.45.917 0 1.767-.167 2.55-.5.784-.35 1.492-.875 2.125-1.575l2.1 2a7.995 7.995 0 0 1-3 2.175c-1.183.5-2.5.75-3.95.75Zm12.823-.25V2.45l.775.8h-6.55V.5h14.8v2.75h-6.55l.75-.8V18h-3.225Zm14.203-10.225h8.7v2.675h-8.7V7.775Zm.25 7.5h9.875V18h-13.125V.5h12.775v2.725h-9.525v12.05Zm27.207 2.975c-1.334 0-2.575-.217-3.725-.65a9.294 9.294 0 0 1-2.975-1.875 8.764 8.764 0 0 1-1.95-2.875c-.467-1.1-.7-2.3-.7-3.6 0-1.3.233-2.5.7-3.6a8.329 8.329 0 0 1 1.975-2.85 8.753 8.753 0 0 1 2.975-1.875c1.133-.45 2.375-.675 3.725-.675 1.433 0 2.741.25 3.925.75a7.664 7.664 0 0 1 3 2.175l-2.1 1.975c-.634-.683-1.342-1.192-2.125-1.525a6.183 6.183 0 0 0-2.55-.525c-.917 0-1.759.15-2.525.45-.75.3-1.409.725-1.975 1.275-.55.55-.984 1.2-1.3 1.95-.3.75-.45 1.575-.45 2.475 0 .9.15 1.725.45 2.475.316.75.75 1.4 1.3 1.95.566.55 1.225.975 1.975 1.275.766.3 1.608.45 2.525.45a6.45 6.45 0 0 0 2.55-.5c.783-.35 1.491-.875 2.125-1.575l2.1 2a8.01 8.01 0 0 1-3 2.175c-1.184.5-2.5.75-3.95.75ZM.35 41V23.5h8.2c2.1 0 3.7.417 4.8 1.25 1.1.817 1.65 1.917 1.65 3.3 0 .933-.217 1.733-.65 2.4a4.45 4.45 0 0 1-1.75 1.525c-.717.35-1.5.525-2.35.525l.45-.9c.983 0 1.867.183 2.65.55.783.35 1.4.867 1.85 1.55.467.683.7 1.533.7 2.55 0 1.5-.575 2.667-1.725 3.5-1.15.833-2.858 1.25-5.125 1.25H.35Zm3.25-2.55h5.25c1.217 0 2.15-.2 2.8-.6.65-.4.975-1.042.975-1.925 0-.867-.325-1.5-.975-1.9-.65-.417-1.583-.625-2.8-.625h-5.5v-2.525H8.2c1.133 0 2-.2 2.6-.6.617-.4.925-1 .925-1.8 0-.817-.308-1.425-.925-1.825-.6-.4-1.467-.6-2.6-.6H3.6v12.4Zm18.144-7.675h8.7v2.675h-8.7v-2.675Zm.25 7.5h9.875V41H18.744V23.5h12.775v2.725h-9.525v12.05ZM49.35 41.25c-1.367 0-2.625-.225-3.775-.675a9.236 9.236 0 0 1-3-1.875 8.67 8.67 0 0 1-1.975-2.85c-.467-1.1-.7-2.3-.7-3.6 0-1.3.233-2.492.7-3.575a8.337 8.337 0 0 1 1.975-2.85 9.024 9.024 0 0 1 3-1.9c1.15-.45 2.4-.675 3.75-.675 1.366 0 2.616.225 3.75.675a9.024 9.024 0 0 1 3 1.9c.85.8 1.508 1.75 1.975 2.85.466 1.083.7 2.275.7 3.575 0 1.3-.234 2.5-.7 3.6a8.338 8.338 0 0 1-1.975 2.85c-.85.8-1.85 1.425-3 1.875-1.134.45-2.375.675-3.725.675Zm-.025-2.85c.883 0 1.7-.15 2.45-.45.75-.3 1.4-.725 1.95-1.275A6.08 6.08 0 0 0 55 34.725c.316-.75.475-1.575.475-2.475 0-.9-.159-1.717-.475-2.45-.3-.75-.725-1.4-1.275-1.95-.55-.567-1.2-1-1.95-1.3-.75-.3-1.567-.45-2.45-.45-.884 0-1.7.15-2.45.45-.734.3-1.384.733-1.95 1.3-.55.55-.984 1.2-1.3 1.95-.3.733-.45 1.55-.45 2.45 0 .883.15 1.7.45 2.45.316.75.75 1.408 1.3 1.975.55.55 1.2.975 1.95 1.275.75.3 1.566.45 2.45.45ZM61.57 41V23.5h2.675L75.22 36.975h-1.325V23.5h3.225V41h-2.675L63.47 27.525h1.325V41H61.57Zm22.614-10.225h8.7v2.675h-8.7v-2.675Zm.25 7.5h9.875V41H81.185V23.5H93.96v2.725h-9.525v12.05Z"/>
    </mask>
    <path d="M.475 18h-1v1h1v-1Zm0-17.5v-1h-1v1h1ZM14.1.5h1v-1h-1v1Zm0 2.675v1h1v-1h-1Zm-10.425 0v-1h-1v1h1Zm0 4.3h-1v1h1v-1Zm9.95 1.325-.632.775.007.005.006.005.619-.785Zm-.175 7.8.614.79.001-.002-.615-.788Zm-9.775-1.1h-1v1h1v-1Zm7.35-.725.597.803-.597-.803Zm-7.35-4.8v-1h-1v1h1ZM1.475 18V.5h-2V18h2Zm-1-16.5H14.1v-2H.475v2ZM13.1.5v2.675h2V.5h-2Zm1 1.675H3.675v2H14.1v-2Zm-11.425 1v4.3h2v-4.3h-2Zm1 5.3H8.85v-2H3.675v2Zm5.175 0c1.98 0 3.309.42 4.143 1.1l1.264-1.55c-1.332-1.086-3.188-1.55-5.407-1.55v2Zm4.156 1.11c.813.64 1.269 1.59 1.269 3.015h2c0-1.908-.644-3.492-2.031-4.585l-1.238 1.57Zm1.269 3.015c0 1.448-.496 2.474-1.44 3.212l1.23 1.576c1.49-1.162 2.21-2.803 2.21-4.788h-2Zm-1.439 3.21c-.961.748-2.412 1.19-4.486 1.19v2c2.326 0 4.275-.492 5.714-1.61l-1.228-1.58ZM8.35 17H.475v2H8.35v-2Zm-4.675-.5h4.5v-2h-4.5v2Zm4.5 0c1.355 0 2.553-.258 3.447-.922l-1.194-1.605c-.406.302-1.108.527-2.253.527v2Zm3.447-.922c.94-.7 1.378-1.718 1.378-2.903h-2c0 .648-.211 1.03-.572 1.297l1.194 1.606ZM13 12.675c0-1.168-.433-2.174-1.38-2.842-.882-.623-2.083-.858-3.445-.858v2c1.188 0 1.9.215 2.292.492.329.232.533.576.533 1.208h2Zm-4.825-3.7h-4.5v2h4.5v-2Zm-5.5 1V15.5h2V9.975h-2Zm15.173 5.275.327-.945-.973-.336-.308.982.954.299Zm2.425.25.21.978-.21-.978Zm1.875-1.525-.841-.54-.003.004.844.536Zm.85-1.325-.732-.68-.061.065-.048.075.841.54Zm.325-.35.733.68.093-.1.063-.12-.889-.46Zm6.1-11.8v-1h-.608l-.28.54.888.46Zm3.2 0 .881.474.793-1.474h-1.674v1Zm-7.6 14.125-.88-.474-.006.012.886.462Zm-2.2 2.7.588.81-.588-.81Zm-2.75 1.025-.067-.998h-.01l-.008.002.085.996Zm-3.025-.55-.954-.3-.27.863.83.356.394-.919Zm6.2-2.7-.882.471.762 1.426.936-1.318-.816-.579ZM15.448.5v-1H13.78l.786 1.471.882-.471Zm3.475 0 .893-.45-.277-.55h-.616v1Zm6.1 12.1.816.579.349-.491-.272-.538-.893.45Zm-7.501 3.595c1.03.356 2.03.482 2.961.283l-.42-1.956c-.468.1-1.085.06-1.888-.217l-.653 1.89Zm2.961.283c1.058-.227 1.879-.973 2.51-1.967l-1.689-1.072c-.469.74-.898 1.01-1.24 1.083l.419 1.956Zm2.507-1.963.85-1.325-1.683-1.08-.85 1.325 1.683 1.08Zm.741-1.184.325-.35-1.465-1.361-.325.35 1.465 1.36Zm.48-.572 6.1-11.8-1.776-.918-6.1 11.8 1.777.918ZM29.424 1.5h3.2v-2h-3.2v2Zm2.32-1.474-7.6 14.125 1.761.948 7.6-14.125-1.761-.948Zm-7.606 14.137c-.564 1.082-1.206 1.848-1.9 2.353l1.174 1.618c1.004-.729 1.83-1.762 2.5-3.047l-1.774-.924Zm-1.9 2.353c-.71.514-1.448.783-2.231.836l.135 1.996c1.183-.08 2.278-.494 3.27-1.214l-1.175-1.618Zm-2.25.838c-.775.067-1.619-.076-2.545-.473l-.788 1.838c1.175.503 2.348.727 3.505.627l-.171-1.992Zm-1.984.745.8-2.55-1.909-.598-.8 2.55 1.909.598Zm6.128-3.47-7.8-14.6-1.765.942 7.8 14.6 1.765-.942ZM15.448 1.5h3.475v-2h-3.475v2ZM18.03.95l6.1 12.1 1.786-.9-6.1-12.1-1.785.9Zm6.178 11.071-1.775 2.5 1.63 1.158 1.776-2.5-1.63-1.158ZM45.64 16.5h-1v1h1v-1Zm0-13.25h1v-1h-1v1Zm-6.85 0v-1h-.96l-.039.96 1 .04Zm-.125 3.1 1 .043V6.39l-1-.04Zm-.224 3.325-.996-.095v.007l-.001.008.997.08Zm-.425 2.825-.974-.229-.002.009-.002.01.977.21Zm-.776 2.125.862.507-.861-.507Zm-1.224 1.125-.142.99.255.036.241-.091-.355-.935Zm-3.5-.5.052-.999-.194 1.989.142-.99Zm1.55-.65-.746-.666-.007.008-.007.007.76.651Zm.974-1.95.963.27-.963-.27Zm.526-2.925.994.104v-.002l-.994-.102Zm.25-3.675.999.038v-.002l-1-.036Zm.2-5.55v-1h-.965l-.035.964 1 .036ZM48.84.5h1v-1h-1v1Zm0 16v1h1v-1h-1Zm-16.926 5.225-1-.004-.003 1.004h1.003v-1Zm.025-6.475v-1h-.996l-.004.996 1 .004Zm19.425 0h1v-1h-1v1Zm0 6.475v1h1v-1h-1Zm-3 0h-1v1h1v-1Zm0-3.725h1v-1h-1v1ZM34.94 18v-1h-1v1h1Zm0 3.725v1h1v-1h-1Zm11.7-5.225V3.25h-2V16.5h2Zm-1-14.25h-6.85v2h6.85v-2Zm-7.85.96-.125 3.1 1.999.08.125-3.1-1.999-.08Zm-.125 3.097a63.236 63.236 0 0 1-.221 3.273l1.99.19c.103-1.07.179-2.195.23-3.377l-1.999-.086Zm-.222 3.288c-.08.992-.215 1.883-.402 2.676l1.947.458c.213-.907.362-1.9.448-2.974l-1.993-.16Zm-.406 2.694c-.168.777-.395 1.379-.66 1.829l1.724 1.014c.402-.683.692-1.498.891-2.421l-1.955-.422Zm-.66 1.829c-.25.425-.499.614-.717.697l.71 1.87c.748-.284 1.315-.844 1.731-1.553l-1.724-1.014Zm-.221.642-3.5-.5-.283 1.98 3.5.5.283-1.98Zm-3.694 1.489c.932.049 1.752-.287 2.362-.998l-1.519-1.302c-.19.223-.403.32-.738.302l-.105 1.998Zm2.348-.983c.55-.616.933-1.42 1.192-2.346l-1.925-.54c-.208.74-.475 1.236-.758 1.554l1.491 1.332Zm1.192-2.346c.253-.901.436-1.934.557-3.091l-1.99-.208c-.112 1.076-.278 1.993-.492 2.76l1.925.539Zm.557-3.093c.12-1.157.204-2.404.255-3.739l-1.999-.076a56.185 56.185 0 0 1-.245 3.61l1.99.205Zm.255-3.741.2-5.55-1.999-.072-.2 5.55 1.999.072Zm-.8-4.586H48.84v-2H36.014v2ZM47.84.5v16h2V.5h-2Zm1 15h-3.2v2h3.2v-2Zm-15.925 6.229.025-6.475-2-.008-.024 6.475 2 .008Zm-.975-5.479h19.425v-2H31.94v2Zm18.425-1v6.475h2V15.25h-2Zm1 5.475h-3v2h3v-2Zm-2 1V18h-2v3.725h2Zm-1-4.725H34.94v2h13.425v-2ZM33.94 18v3.725h2V18h-2Zm1 2.725h-3.025v2h3.025v-2Zm31.76-12.9-.636.772.636-.772Zm-.175 8.675.63.777v-.001l-.63-.776Zm-12.7 1.5h-1v1h1v-1Zm0-17.5v-1h-1v1h1Zm3.2 0h1v-1h-1v1Zm0 5.925h-1v1h1v-1Zm7.075 8.2-.64-.768-.01.007.65.761Zm.025-4.95-.603.798.006.004.006.005.59-.807Zm-7.1-.775v-1h-1v1h1Zm0 6.6h-1v1h1v-1Zm4.85-8.075c1.947 0 3.297.437 4.189 1.172l1.271-1.544c-1.374-1.132-3.24-1.628-5.46-1.628v2Zm4.189 1.172c.842.694 1.336 1.772 1.336 3.428h2c0-2.078-.64-3.799-2.065-4.972l-1.271 1.544Zm1.336 3.428c0 1.739-.541 2.914-1.506 3.7l1.262 1.55c1.534-1.248 2.244-3.055 2.244-5.25h-2Zm-1.505 3.698C64.899 16.531 63.427 17 61.35 17v2c2.356 0 4.334-.531 5.804-1.723l-1.26-1.554ZM61.35 17h-7.525v2h7.525v-2Zm-6.525 1V.5h-2V18h2Zm-1-16.5h3.2v-2h-3.2v2Zm2.2-1v5.925h2V.5h-2Zm1 6.925h4.85v-2h-4.85v2ZM61.2 16.5c1.395 0 2.625-.326 3.549-1.114l-1.299-1.522c-.442.378-1.146.636-2.25.636v2Zm3.54-1.107c.979-.816 1.41-1.978 1.41-3.318h-2c0 .893-.27 1.43-.69 1.782l1.28 1.536Zm1.41-3.318c0-1.314-.42-2.464-1.435-3.207l-1.18 1.614c.35.257.615.707.615 1.593h2Zm-1.422-3.198C63.805 8.18 62.584 7.9 61.2 7.9v2c1.148 0 1.877.237 2.322.573l1.206-1.596ZM61.2 7.9h-4.175v2H61.2v-2Zm-5.175 1v6.6h2V8.9h-2Zm1 7.6H61.2v-2h-4.175v2ZM77.404 18h-1v1h1v-1Zm0-17.5v-1h-1v1h1Zm12.425 1.175-.58.815.008.005.572-.82Zm.075 6.65.59.808.008-.006-.598-.802Zm-4.15 1.15-.895-.447-.723 1.447h1.618v-1Zm.45-.9v-1h-.618l-.277.553.895.447Zm4.45 8.15.605.796.008-.006-.613-.79ZM80.604 15.5h-1v1h1v-1Zm7.575-.625.58.814.008-.006.008-.005-.596-.803Zm0-3.9-.582.814.008.005.008.006.566-.825Zm-7.575-.625v-1h-1v1h1Zm0-2.375h-1v1h1v-1Zm6.75-.625.604.797.007-.006.008-.006-.62-.785Zm0-3.725.604-.797-.604.797ZM80.604 3V2h-1v1h1Zm-2.2 15V.5h-2V18h2Zm-1-16.5h7.825v-2h-7.825v2Zm7.825 0c1.85 0 3.15.37 4.02.99l1.16-1.63c-1.33-.947-3.096-1.36-5.18-1.36v2Zm4.028.995c.807.563 1.222 1.35 1.222 2.505h2c0-1.746-.686-3.175-2.079-4.145l-1.143 1.64ZM90.479 5c0 1.152-.403 1.949-1.173 2.523l1.196 1.604C91.83 8.135 92.479 6.715 92.479 5h-2Zm-1.165 2.517c-.831.607-1.988.958-3.56.958v2c1.86 0 3.47-.416 4.74-1.342l-1.18-1.616Zm-2.666 2.405.45-.9-1.789-.894-.45.9 1.79.894Zm-.444-.347c1.833 0 3.102.37 3.933.981l1.184-1.612c-1.303-.956-3.05-1.369-5.117-1.369v2Zm3.933.981c.776.57 1.192 1.385 1.192 2.594h2c0-1.757-.651-3.21-2.008-4.206l-1.184 1.612Zm1.192 2.594c0 1.234-.436 2.123-1.288 2.785l1.226 1.58c1.38-1.072 2.062-2.565 2.062-4.365h-2Zm-1.281 2.78c-.87.661-2.266 1.07-4.344 1.07v2c2.288 0 4.192-.441 5.555-1.48l-1.211-1.59ZM85.704 17h-8.3v2h8.3v-2Zm-5.1-.5h5v-2h-5v2Zm5 0c1.23 0 2.33-.221 3.156-.811l-1.163-1.628c-.34.244-.956.439-1.993.439v2Zm3.171-.822c.893-.664 1.279-1.655 1.279-2.778h-2c0 .643-.198.969-.472 1.172l1.193 1.606Zm1.279-2.778c0-1.12-.386-2.116-1.31-2.75l-1.13 1.65c.242.166.44.454.44 1.1h2Zm-1.294-2.739c-.826-.59-1.927-.811-3.156-.811v2c1.037 0 1.653.195 1.993.439l1.163-1.628Zm-3.156-.811h-5v2h5v-2Zm-6 1v5.15h2v-5.15h-2Zm1-1.375h4.35v-2h-4.35v2Zm4.35 0c1.16 0 2.21-.227 3.004-.828L86.75 6.553c-.307.232-.857.422-1.796.422v2Zm3.019-.84c.827-.651 1.206-1.578 1.206-2.635h-2c0 .543-.171.85-.444 1.065l1.238 1.57ZM89.179 5.5c0-1.074-.37-2.026-1.221-2.672L86.75 4.422c.248.188.429.485.429 1.078h2Zm-1.221-2.672C87.164 2.227 86.114 2 84.954 2v2c.94 0 1.49.19 1.796.422l1.208-1.594ZM84.954 2h-4.35v2h4.35V2Zm-5.35 1v4.975h2V3h-2ZM95.43 18h-1v1h1v-1Zm0-17.5v-1h-1v1h1Zm2.65 0 .857-.515-.291-.485h-.566v1Zm7.675 12.775v1h1.767l-.91-1.515-.857.515Zm-1.425 0-.861-.509-.892 1.509h1.753v-1ZM111.881.5v-1h-.571l-.29.491.861.509Zm2.65 0 1-.003-.003-.997h-.997v1Zm.05 17.5v1h1.003l-.003-1.003-1 .003Zm-3.1 0-1 .002.002.998h.998v-1Zm-.025-12.675v-1h-1.002l.002 1.002 1-.002Zm.65 0 .858.514.908-1.514h-1.766v1ZM105.706 16v1h.566l.292-.486-.858-.514Zm-1.45 0-.854.52.292.48h.562v-1Zm-6.5-10.675v-1h-1.78l.926 1.52.854-.52Zm.75 0h1v-1h-1v1Zm0 12.675v1h1v-1h-1Zm-2.075 0V.5h-2V18h2Zm-1-16.5h2.65v-2h-2.65v2Zm1.793-.485 7.675 12.775 1.714-1.03L98.938-.015l-1.714 1.03Zm8.532 11.26h-1.425v2h1.425v-2Zm-.564 1.509 7.55-12.775L111.02-.01l-7.55 12.775 1.722 1.018ZM111.881 1.5h2.65v-2h-2.65v2Zm1.65-.997.05 17.5 2-.006-.05-17.5-2 .006ZM114.581 17h-3.1v2h3.1v-2Zm-2.1.998-.025-12.675-2 .004.025 12.675 2-.004Zm-1.025-11.673h.65v-2h-.65v2Zm-.208-1.514-6.4 10.675 1.716 1.028 6.4-10.675-1.716-1.028ZM105.706 15h-1.45v2h1.45v-2Zm-.596.48-6.5-10.675-1.708 1.04 6.5 10.675 1.708-1.04Zm-7.354-9.155h.75v-2h-.75v2Zm-.25-1V18h2V5.325h-2Zm1 11.675h-3.075v2h3.075v-2Zm23.347-9.225v-1h-1v1h1Zm8.7 0h1v-1h-1v1Zm0 2.675v1h1v-1h-1Zm-8.7 0h-1v1h1v-1Zm.25 4.825h-1v1h1v-1Zm9.875 0h1v-1h-1v1Zm0 2.725v1h1v-1h-1Zm-13.125 0h-1v1h1v-1Zm0-17.5v-1h-1v1h1Zm12.775 0h1v-1h-1v1Zm0 2.725v1h1v-1h-1Zm-9.525 0v-1h-1v1h1Zm-.25 5.55h8.7v-2h-8.7v2Zm7.7-1v2.675h2V7.775h-2Zm1 1.675h-8.7v2h8.7v-2Zm-7.7 1V7.775h-2v2.675h2Zm-.75 5.825h9.875v-2h-9.875v2Zm8.875-1V18h2v-2.725h-2Zm1 1.725h-13.125v2h13.125v-2Zm-12.125 1V.5h-2V18h2Zm-1-16.5h12.775v-2h-12.775v2Zm11.775-1v2.725h2V.5h-2Zm1 1.725h-9.525v2h9.525v-2Zm-10.525 1v12.05h2V3.225h-2ZM139.301 17.6l-.369.93.009.003.008.003.352-.936Zm-2.975-1.875-.7.714.008.007.007.007.685-.728Zm-1.95-2.875-.92.39.92-.39Zm0-7.2-.92-.39.92.39Zm1.975-2.85.686.728.007-.007-.693-.721Zm2.975-1.875.358.934.011-.005-.369-.929Zm7.65.075-.389.921.011.005.378-.926Zm3 2.175.685.728.691-.65-.612-.723-.764.645Zm-2.1 1.975-.733.68.685.739.733-.69-.685-.729Zm-2.125-1.525-.408.913.009.004.008.003.391-.92Zm-5.075-.075-.364-.931-.007.003.371.928Zm-1.975 1.275-.696-.718-.005.006-.006.005.707.707Zm-1.3 1.95-.921-.389-.004.009-.003.009.928.371Zm0 4.95-.928.371.003.01.004.008.921-.389Zm1.3 1.95-.707.707.006.005.005.006.696-.718Zm1.975 1.275-.371.929.007.002.364-.931Zm5.075-.05.392.92.008-.003.008-.004-.408-.913Zm2.125-1.575.69-.724-.743-.708-.688.761.741.671Zm2.1 2 .759.652.619-.72-.688-.656-.69.724Zm-3 2.175-.389-.921.389.921Zm-3.95-.25c-1.223 0-2.344-.198-3.372-.586l-.705 1.872c1.272.479 2.634.714 4.077.714v-2Zm-3.356-.58a8.303 8.303 0 0 1-2.658-1.673l-1.371 1.456c.946.89 2.046 1.582 3.291 2.076l.738-1.858Zm-2.644-1.66a7.774 7.774 0 0 1-1.729-2.55l-1.841.78a9.796 9.796 0 0 0 2.17 3.2l1.4-1.43Zm-1.729-2.55c-.41-.967-.621-2.032-.621-3.21h-2c0 1.422.256 2.757.78 3.99l1.841-.78Zm-.621-3.21c0-1.178.211-2.243.621-3.21l-1.841-.78c-.524 1.233-.78 2.568-.78 3.99h2Zm.621-3.21a7.336 7.336 0 0 1 1.74-2.512l-1.371-1.456a9.336 9.336 0 0 0-2.21 3.187l1.841.782Zm1.747-2.519a7.758 7.758 0 0 1 2.64-1.662l-.715-1.868a9.76 9.76 0 0 0-3.31 2.088l1.385 1.442Zm2.651-1.667c1.004-.398 2.119-.604 3.356-.604v-2c-1.462 0-2.831.244-4.094.746l.738 1.858Zm3.356-.604c1.315 0 2.489.229 3.536.671l.779-1.842c-1.32-.558-2.763-.829-4.315-.829v2Zm3.547.676a6.653 6.653 0 0 1 2.614 1.894l1.528-1.29a8.655 8.655 0 0 0-3.386-2.456l-.756 1.852Zm2.693.52-2.1 1.976 1.37 1.456 2.1-1.975-1.37-1.456Zm-.681 2.024c-.72-.777-1.542-1.372-2.467-1.765l-.783 1.84c.642.273 1.236.695 1.783 1.285l1.467-1.36Zm-2.451-1.758a7.176 7.176 0 0 0-2.958-.612v2c.786 0 1.496.15 2.142.438l.816-1.826Zm-2.958-.612c-1.027 0-1.994.168-2.889.519l.729 1.862c.638-.25 1.354-.381 2.16-.381v-2Zm-2.896.522a7.008 7.008 0 0 0-2.3 1.485l1.393 1.436a5.01 5.01 0 0 1 1.65-1.065l-.743-1.856Zm-2.311 1.496a7.073 7.073 0 0 0-1.514 2.268l1.843.778a5.05 5.05 0 0 1 1.085-1.632l-1.414-1.414Zm-1.521 2.286c-.352.88-.522 1.833-.522 2.846h2c0-.787.131-1.484.379-2.104l-1.857-.742Zm-.522 2.846c0 1.013.17 1.966.522 2.846l1.857-.742c-.248-.62-.379-1.317-.379-2.104h-2Zm.529 2.864a7.073 7.073 0 0 0 1.514 2.268l1.414-1.414a5.05 5.05 0 0 1-1.085-1.632l-1.843.778Zm1.525 2.279a7.008 7.008 0 0 0 2.3 1.486l.743-1.857a5.009 5.009 0 0 1-1.65-1.065l-1.393 1.436Zm2.307 1.488c.895.35 1.862.519 2.889.519v-2c-.806 0-1.522-.132-2.16-.381l-.729 1.862Zm2.889.519c1.041 0 2.026-.19 2.942-.58l-.783-1.84c-.65.277-1.366.42-2.159.42v2Zm2.958-.587c.923-.412 1.742-1.024 2.459-1.817l-1.483-1.342c-.55.607-1.147 1.045-1.792 1.333l.816 1.826Zm1.028-1.764 2.1 2 1.379-1.448-2.1-2-1.379 1.448Zm2.031.624a7.004 7.004 0 0 1-2.631 1.906l.779 1.842a9.01 9.01 0 0 0 3.369-2.444l-1.517-1.304Zm-2.631 1.906c-1.045.441-2.227.671-3.561.671v2c1.567 0 3.018-.27 4.34-.829l-.779-1.842ZM155.849 18h-1v1h1v-1Zm0-15.55.718-.696-1.718-1.773V2.45h1Zm.775.8v1h2.361l-1.643-1.696-.718.696Zm-6.55 0h-1v1h1v-1Zm0-2.75v-1h-1v1h1Zm14.8 0h1v-1h-1v1Zm0 2.75v1h1v-1h-1Zm-6.55 0-.73-.684-1.579 1.684h2.309v-1Zm.75-.8h1V-.079l-1.73 1.845.73.684Zm0 15.55v1h1v-1h-1Zm-2.225 0V2.45h-2V18h2ZM155.13 3.146l.775.8 1.437-1.392-.775-.8-1.437 1.392Zm1.494-.896h-6.55v2h6.55v-2Zm-5.55 1V.5h-2v2.75h2Zm-1-1.75h14.8v-2h-14.8v2Zm13.8-1v2.75h2V.5h-2Zm1 1.75h-6.55v2h6.55v-2Zm-5.821 1.684.75-.8-1.459-1.368-.75.8 1.459 1.368Zm-.979-1.484V18h2V2.45h-2Zm1 14.55h-3.225v2h3.225v-2Zm10.978-9.225v-1h-1v1h1Zm8.7 0h1v-1h-1v1Zm0 2.675v1h1v-1h-1Zm-8.7 0h-1v1h1v-1Zm.25 4.825h-1v1h1v-1Zm9.875 0h1v-1h-1v1Zm0 2.725v1h1v-1h-1Zm-13.125 0h-1v1h1v-1Zm0-17.5v-1h-1v1h1Zm12.775 0h1v-1h-1v1Zm0 2.725v1h1v-1h-1Zm-9.525 0v-1h-1v1h1Zm-.25 5.55h8.7v-2h-8.7v2Zm7.7-1v2.675h2V7.775h-2Zm1 1.675h-8.7v2h8.7v-2Zm-7.7 1V7.775h-2v2.675h2Zm-.75 5.825h9.875v-2h-9.875v2Zm8.875-1V18h2v-2.725h-2Zm1 1.725h-13.125v2h13.125v-2Zm-12.125 1V.5h-2V18h2Zm-1-16.5h12.775v-2h-12.775v2Zm11.775-1v2.725h2V.5h-2Zm1 1.725h-9.525v2h9.525v-2Zm-10.525 1v12.05h2V3.225h-2ZM193.784 17.6l-.369.93.008.003.008.003.353-.936Zm-2.975-1.875-.7.714.007.007.007.007.686-.728Zm-1.95-2.875-.921.39.921-.39Zm0-7.2-.921-.39.921.39Zm1.975-2.85.685.728.008-.007-.693-.721Zm2.975-1.875.357.934.012-.005-.369-.929Zm7.65.075-.389.921.011.005.378-.926Zm3 2.175.685.728.691-.65-.612-.723-.764.645Zm-2.1 1.975-.734.68.685.739.734-.69-.685-.729Zm-2.125-1.525-.408.913.008.004.008.003.392-.92Zm-5.075-.075-.365-.931-.007.003.372.928Zm-1.975 1.275-.697-.718-.005.006-.005.005.707.707Zm-1.3 1.95-.921-.389-.004.009-.004.009.929.371Zm0 4.95-.929.371.004.01.004.008.921-.389Zm1.3 1.95-.707.707.005.005.005.006.697-.718Zm1.975 1.275-.372.929.007.002.365-.931Zm5.075-.05.391.92.009-.003.008-.004-.408-.913Zm2.125-1.575.689-.724-.742-.708-.689.761.742.671Zm2.1 2 .758.652.62-.72-.689-.656-.689.724Zm-3 2.175-.389-.921.389.921Zm-3.95-.25c-1.223 0-2.345-.198-3.373-.586l-.705 1.872c1.272.479 2.634.714 4.078.714v-2Zm-3.356-.58a8.297 8.297 0 0 1-2.659-1.673l-1.371 1.456c.946.89 2.047 1.582 3.292 2.076l.738-1.858Zm-2.644-1.66a7.792 7.792 0 0 1-1.73-2.55l-1.841.78a9.784 9.784 0 0 0 2.171 3.2l1.4-1.43Zm-1.73-2.55c-.409-.967-.62-2.032-.62-3.21h-2c0 1.422.256 2.757.779 3.99l1.841-.78Zm-.62-3.21c0-1.178.211-2.243.62-3.21l-1.841-.78c-.523 1.233-.779 2.568-.779 3.99h2Zm.62-3.21a7.35 7.35 0 0 1 1.74-2.512l-1.371-1.456a9.35 9.35 0 0 0-2.21 3.187l1.841.782Zm1.748-2.519a7.754 7.754 0 0 1 2.639-1.662l-.714-1.868a9.754 9.754 0 0 0-3.311 2.088l1.386 1.442Zm2.651-1.667c1.004-.398 2.119-.604 3.356-.604v-2c-1.463 0-2.832.244-4.094.746l.738 1.858Zm3.356-.604c1.315 0 2.489.229 3.536.671l.778-1.842c-1.32-.558-2.763-.829-4.314-.829v2Zm3.547.676a6.667 6.667 0 0 1 2.614 1.894l1.528-1.29a8.662 8.662 0 0 0-3.386-2.456l-.756 1.852Zm2.693.52-2.1 1.976 1.37 1.456 2.1-1.975-1.37-1.456Zm-.682 2.024c-.72-.777-1.542-1.372-2.467-1.765l-.783 1.84c.642.273 1.237.695 1.783 1.285l1.467-1.36Zm-2.45-1.758a7.182 7.182 0 0 0-2.958-.612v2c.786 0 1.496.15 2.142.438l.816-1.826Zm-2.958-.612c-1.027 0-1.994.168-2.89.519l.729 1.862c.638-.25 1.355-.381 2.161-.381v-2Zm-2.897.522a7.018 7.018 0 0 0-2.3 1.485l1.393 1.436a5.01 5.01 0 0 1 1.65-1.065l-.743-1.856Zm-2.31 1.496a7.04 7.04 0 0 0-1.514 2.268l1.842.778a5.053 5.053 0 0 1 1.086-1.632l-1.414-1.414Zm-1.522 2.286c-.352.88-.521 1.833-.521 2.846h2c0-.787.131-1.484.378-2.104l-1.857-.742Zm-.521 2.846c0 1.013.169 1.966.521 2.846l1.857-.742c-.247-.62-.378-1.317-.378-2.104h-2Zm.529 2.864a7.04 7.04 0 0 0 1.514 2.268l1.414-1.414a5.053 5.053 0 0 1-1.086-1.632l-1.842.778Zm1.524 2.279a7.019 7.019 0 0 0 2.3 1.486l.743-1.857a5.009 5.009 0 0 1-1.65-1.065l-1.393 1.436Zm2.307 1.488c.896.35 1.863.519 2.89.519v-2c-.806 0-1.523-.132-2.161-.381l-.729 1.862Zm2.89.519a7.44 7.44 0 0 0 2.941-.58l-.783-1.84c-.65.277-1.366.42-2.158.42v2Zm2.958-.587c.922-.412 1.741-1.024 2.458-1.817l-1.483-1.342c-.549.607-1.147 1.045-1.791 1.333l.816 1.826Zm1.027-1.764 2.1 2 1.379-1.448-2.1-2-1.379 1.448Zm2.031.624a7.008 7.008 0 0 1-2.63 1.906l.778 1.842a9.003 9.003 0 0 0 3.369-2.444l-1.517-1.304Zm-2.63 1.906c-1.046.441-2.228.671-3.561.671v2c1.566 0 3.018-.27 4.339-.829l-.778-1.842ZM.35 41h-1v1h1v-1Zm0-17.5v-1h-1v1h1Zm13 1.25-.604.797.008.006.596-.803Zm1 5.7.832.555.006-.01-.838-.545Zm-1.75 1.525.439.899.008-.005-.447-.894Zm-2.35.525-.894-.447-.724 1.447h1.618v-1Zm.45-.9v-1h-.618l-.276.553.894.447Zm2.65.55-.424.906.008.003.008.004.408-.913Zm1.85 1.55-.835.55.005.007.004.007.826-.564ZM3.6 38.45h-1v1h1v-1Zm8.05-.6-.524-.852.524.852Zm0-3.825-.54.842.008.005.008.005.524-.852Zm-8.3-.625h-1v1h1v-1Zm0-2.525v-1h-1v1h1Zm7.45-.6-.544-.839-.01.007.554.832Zm0-3.625-.555.832.01.007.545-.839Zm-7.2-.6v-1h-1v1h1ZM1.35 41V23.5h-2V41h2Zm-1-16.5h8.2v-2H.35v2Zm8.2 0c1.99 0 3.34.398 4.196 1.047l1.208-1.594C12.61 22.935 10.76 22.5 8.55 22.5v2Zm4.204 1.053C13.597 26.179 14 26.98 14 28.05h2c0-1.696-.697-3.095-2.054-4.103l-1.192 1.606ZM14 28.05c0 .774-.178 1.377-.488 1.855l1.676 1.09c.556-.855.812-1.853.812-2.945h-2Zm-.482 1.845c-.332.498-.78.893-1.365 1.186l.894 1.788a5.45 5.45 0 0 0 2.135-1.864l-1.664-1.11Zm-1.357 1.181a4.284 4.284 0 0 1-1.911.424v2c.992 0 1.927-.205 2.789-.626l-.878-1.798Zm-1.017 1.871.45-.9-1.788-.894-.45.9 1.788.894ZM10.7 32.6c.857 0 1.593.16 2.226.456l.848-1.812c-.933-.436-1.964-.644-3.074-.644v2Zm2.242.463c.618.276 1.083.67 1.423 1.187l1.67-1.1a5.222 5.222 0 0 0-2.277-1.913l-.816 1.826Zm1.432 1.201c.33.482.526 1.124.526 1.986h2c0-1.171-.27-2.23-.874-3.114l-1.652 1.128Zm.526 1.986c0 1.2-.438 2.057-1.312 2.69l1.174 1.62c1.426-1.034 2.138-2.51 2.138-4.31h-2Zm-1.312 2.69c-.904.656-2.366 1.06-4.538 1.06v2c2.361 0 4.316-.43 5.712-1.44l-1.174-1.62ZM9.05 40H.35v2h8.7v-2Zm-5.45-.55h5.25v-2H3.6v2Zm5.25 0c1.302 0 2.449-.21 3.324-.748l-1.048-1.704c-.425.262-1.144.452-2.276.452v2Zm3.324-.748c.997-.614 1.451-1.61 1.451-2.777h-2c0 .6-.196.887-.5 1.073l1.05 1.704Zm1.451-2.777c0-1.158-.46-2.142-1.45-2.752l-1.05 1.704c.31.19.5.473.5 1.048h2Zm-1.435-2.742c-.88-.563-2.033-.783-3.34-.783v2c1.126 0 1.84.197 2.26.467l1.08-1.684ZM8.85 32.4h-5.5v2h5.5v-2Zm-4.5 1v-2.525h-2V33.4h2Zm-1-1.525H8.2v-2H3.35v2Zm4.85 0c1.227 0 2.321-.212 3.155-.768l-1.11-1.664c-.366.244-1.005.432-2.045.432v2Zm3.144-.761c.93-.603 1.381-1.536 1.381-2.639h-2c0 .497-.165.764-.47.961l1.09 1.678Zm1.381-2.639c0-1.111-.444-2.057-1.38-2.664l-1.09 1.678c.298.193.47.464.47.986h2Zm-1.37-2.657c-.834-.556-1.928-.768-3.155-.768v2c1.04 0 1.679.188 2.045.432l1.11-1.664ZM8.2 25.05H3.6v2h4.6v-2Zm-5.6 1v12.4h2v-12.4h-2Zm19.144 4.725v-1h-1v1h1Zm8.7 0h1v-1h-1v1Zm0 2.675v1h1v-1h-1Zm-8.7 0h-1v1h1v-1Zm.25 4.825h-1v1h1v-1Zm9.875 0h1v-1h-1v1Zm0 2.725v1h1v-1h-1Zm-13.125 0h-1v1h1v-1Zm0-17.5v-1h-1v1h1Zm12.775 0h1v-1h-1v1Zm0 2.725v1h1v-1h-1Zm-9.525 0v-1h-1v1h1Zm-.25 5.55h8.7v-2h-8.7v2Zm7.7-1v2.675h2v-2.675h-2Zm1 1.675h-8.7v2h8.7v-2Zm-7.7 1v-2.675h-2v2.675h2Zm-.75 5.825h9.875v-2h-9.875v2Zm8.875-1V41h2v-2.725h-2Zm1 1.725H18.744v2h13.125v-2Zm-12.125 1V23.5h-2V41h2Zm-1-16.5h12.775v-2H18.744v2Zm11.775-1v2.725h2V23.5h-2Zm1 1.725h-9.525v2h9.525v-2Zm-10.525 1v12.05h2v-12.05h-2Zm24.582 14.35.364-.931-.364.931Zm-3-1.875-.693.721.007.007.686-.728ZM40.6 35.85l-.92.39.001.006.919-.396Zm0-7.175.918.396.002-.006-.92-.39Zm1.975-2.85.685.728.008-.007-.693-.721Zm3-1.9.364.931-.364-.931Zm7.5 0-.37.93.005.001.365-.931Zm3 1.9-.693.721.007.007.686-.728Zm1.975 2.85-.92.39.001.006.919-.396Zm0 7.175-.92-.39.92.39Zm-1.975 2.85-.686-.728.686.728Zm-3 1.875-.365-.931-.004.002.369.929Zm-1.3-2.625.371.928-.371-.928Zm1.95-1.275.707.707.005-.005.005-.006-.717-.696ZM55 34.725l-.921-.389-.005.01.926.379Zm0-4.925-.929.371.005.013.006.012L55 29.8Zm-1.275-1.95-.718.697.005.005.006.005.707-.707Zm-1.95-1.3.371-.928-.371.928Zm-4.9 0-.372-.928-.007.003.379.925Zm-1.95 1.3-.707-.707.707.707Zm-1.3 1.95-.921-.389-.005.01.926.379Zm0 4.9-.929.371.004.01.004.008.92-.389Zm1.3 1.975-.718.697.005.005.006.005.707-.707Zm1.95 1.275.371-.928-.371.928Zm2.475 2.3c-1.255 0-2.389-.206-3.41-.606l-.73 1.862c1.278.5 2.662.744 4.14.744v-2Zm-3.41-.606a8.24 8.24 0 0 1-2.68-1.672l-1.37 1.456a10.235 10.235 0 0 0 3.32 2.078l.73-1.862Zm-2.672-1.665a7.67 7.67 0 0 1-1.75-2.525l-1.837.792a9.667 9.667 0 0 0 2.201 3.175l1.386-1.442Zm-1.748-2.52c-.41-.966-.62-2.031-.62-3.209h-2c0 1.422.256 2.757.78 3.99l1.84-.78Zm-.62-3.209c0-1.178.21-2.233.618-3.18l-1.837-.79c-.525 1.22-.781 2.548-.781 3.97h2Zm.62-3.184a7.338 7.338 0 0 1 1.74-2.513l-1.37-1.456a9.338 9.338 0 0 0-2.21 3.187l1.84.782Zm1.748-2.52a8.027 8.027 0 0 1 2.671-1.69l-.729-1.862a10.024 10.024 0 0 0-3.328 2.11l1.386 1.442Zm2.671-1.69c1.024-.4 2.149-.606 3.386-.606v-2c-1.463 0-2.838.244-4.115.744l.73 1.862Zm3.386-.606c1.255 0 2.378.206 3.38.604l.739-1.858c-1.264-.502-2.641-.746-4.12-.746v2Zm3.385.606a8.027 8.027 0 0 1 2.672 1.69l1.386-1.442a10.024 10.024 0 0 0-3.329-2.11l-.729 1.862Zm2.68 1.697a7.338 7.338 0 0 1 1.74 2.512l1.84-.78a9.338 9.338 0 0 0-2.21-3.188l-1.37 1.456Zm1.741 2.518c.408.946.619 2.001.619 3.179h2c0-1.422-.256-2.75-.782-3.97l-1.837.79Zm.619 3.179c0 1.178-.211 2.243-.62 3.21l1.84.78c.524-1.233.78-2.568.78-3.99h-2Zm-.62 3.21a7.338 7.338 0 0 1-1.74 2.512l1.37 1.456a9.338 9.338 0 0 0 2.21-3.187l-1.84-.782Zm-1.74 2.512a8.238 8.238 0 0 1-2.68 1.672l.73 1.862a10.234 10.234 0 0 0 3.32-2.078l-1.37-1.456Zm-2.684 1.674c-1.004.398-2.12.604-3.356.604v2c1.463 0 2.831-.244 4.094-.746l-.738-1.858Zm-3.381-.246c.998 0 1.942-.17 2.821-.521l-.743-1.857a5.54 5.54 0 0 1-2.078.378v2Zm2.821-.521a6.736 6.736 0 0 0 2.286-1.497l-1.414-1.414c-.45.45-.985.802-1.615 1.053l.743 1.858Zm2.296-1.508a7.078 7.078 0 0 0 1.483-2.267l-1.85-.758a5.079 5.079 0 0 1-1.068 1.633l1.435 1.392Zm1.479-2.257c.374-.886.554-1.844.554-2.864h-2c0 .78-.137 1.471-.396 2.086l1.842.778Zm.554-2.864c0-1.02-.18-1.973-.557-2.846l-1.836.792c.256.594.393 1.273.393 2.054h2Zm-.547-2.821a6.739 6.739 0 0 0-1.496-2.286l-1.414 1.414c.45.45.802.985 1.053 1.614l1.857-.742Zm-1.486-2.275a6.564 6.564 0 0 0-2.296-1.532l-.743 1.857a4.561 4.561 0 0 1 1.604 1.068l1.435-1.393Zm-2.296-1.532a7.536 7.536 0 0 0-2.821-.522v2c.768 0 1.457.13 2.078.378l.743-1.857Zm-2.821-.522c-.999 0-1.943.17-2.822.521l.743 1.858a5.539 5.539 0 0 1 2.079-.379v-2Zm-2.829.524a6.88 6.88 0 0 0-2.278 1.519l1.414 1.414a4.884 4.884 0 0 1 1.621-1.081l-.757-1.851Zm-2.278 1.519a7.058 7.058 0 0 0-1.514 2.268l1.842.778a5.059 5.059 0 0 1 1.086-1.632l-1.414-1.414ZM42.7 29.42c-.355.87-.524 1.817-.524 2.829h2c0-.788.13-1.473.375-2.071l-1.85-.758Zm-.524 2.829c0 .999.17 1.943.521 2.821l1.857-.742a5.537 5.537 0 0 1-.378-2.079h-2Zm.529 2.839c.363.86.864 1.624 1.503 2.282l1.435-1.393a5.357 5.357 0 0 1-1.096-1.667l-1.842.778Zm1.514 2.293a6.735 6.735 0 0 0 2.285 1.497l.743-1.857a4.738 4.738 0 0 1-1.614-1.054l-1.414 1.414Zm2.285 1.497a7.536 7.536 0 0 0 2.822.521v-2c-.768 0-1.458-.13-2.079-.378l-.743 1.857ZM61.571 41h-1v1h1v-1Zm0-17.5v-1h-1v1h1Zm2.675 0 .775-.631-.3-.369h-.475v1ZM75.22 36.975v1h2.104l-1.329-1.632-.775.632Zm-1.325 0h-1v1h1v-1Zm0-13.475v-1h-1v1h1Zm3.225 0h1v-1h-1v1Zm0 17.5v1h1v-1h-1Zm-2.675 0-.776.632.3.368h.476v-1ZM63.47 27.525v-1h-2.104l1.328 1.632.776-.632Zm1.325 0h1v-1h-1v1Zm0 13.475v1h1v-1h-1Zm-2.225 0V23.5h-2V41h2Zm-1-16.5h2.675v-2H61.57v2Zm1.9-.369 10.974 13.475 1.551-1.263-10.975-13.475-1.55 1.264Zm11.75 11.844h-1.325v2h1.325v-2Zm-.325 1V23.5h-2v13.475h2Zm-1-12.475h3.225v-2h-3.225v2Zm2.225-1V41h2V23.5h-2Zm1 16.5h-2.675v2h2.675v-2Zm-1.9.368L64.246 26.893l-1.55 1.264L73.67 41.632l1.551-1.264Zm-11.75-11.843h1.325v-2H63.47v2Zm.325-1V41h2V27.525h-2Zm1 12.475H61.57v2h3.225v-2Zm19.389-9.225v-1h-1v1h1Zm8.7 0h1v-1h-1v1Zm0 2.675v1h1v-1h-1Zm-8.7 0h-1v1h1v-1Zm.25 4.825h-1v1h1v-1Zm9.875 0h1v-1h-1v1Zm0 2.725v1h1v-1h-1Zm-13.125 0h-1v1h1v-1Zm0-17.5v-1h-1v1h1Zm12.775 0h1v-1h-1v1Zm0 2.725v1h1v-1h-1Zm-9.525 0v-1h-1v1h1Zm-.25 5.55h8.7v-2h-8.7v2Zm7.7-1v2.675h2v-2.675h-2Zm1 1.675h-8.7v2h8.7v-2Zm-7.7 1v-2.675h-2v2.675h2Zm-.75 5.825h9.875v-2h-9.875v2Zm8.875-1V41h2v-2.725h-2Zm1 1.725H81.185v2H94.31v-2Zm-12.125 1V23.5h-2V41h2Zm-1-16.5H93.96v-2H81.185v2Zm11.775-1v2.725h2V23.5h-2Zm1 1.725h-9.525v2h9.525v-2Zm-10.525 1v12.05h2v-12.05h-2Z" fill="#fff" mask="url(#ca)"/>
</svg><svg fill="none" viewBox="0 0 21 20" id="cart" xmlns="http://www.w3.org/2000/svg">
    <path d="M4.668 5.833H16.16a1.667 1.667 0 0 1 1.658 1.833l-.5 5a1.667 1.667 0 0 1-1.658 1.5H7.7a1.667 1.667 0 0 1-1.635-1.34L4.668 5.834Z" stroke="#fff" stroke-width="2" stroke-linejoin="round"/>
    <path d="m4.668 5.833-.675-2.702a.833.833 0 0 0-.808-.631H2.168M7.168 17.5h1.667M13.836 17.5h1.667" stroke="#fff" stroke-width="2" stroke-linecap="round" stroke-linejoin="round"/>
</svg><svg fill="none" viewBox="0 0 36 36" id="close" xmlns="http://www.w3.org/2000/svg">
    <path d="m19.41 18 7.291-7.29a1 1 0 0 0-1.41-1.41l-7.29 7.29-7.29-7.3a1 1 0 0 0-1.41 1.41l7.29 7.3-7.3 7.29a1 1 0 1 0 1.41 1.41l7.3-7.29 7.29 7.29a1 1 0 0 0 1.41-1.41L19.411 18Z" fill="#000"/>
</svg><svg fill="none" viewBox="0 0 21 20" id="heart" xmlns="http://www.w3.org/2000/svg">
    <path d="M6.335 2.5c-2.301 0-4.167 1.847-4.167 4.125 0 1.84.73 6.204 7.907 10.617a.821.821 0 0 0 .853 0c7.177-4.413 7.907-8.778 7.907-10.617 0-2.278-1.866-4.125-4.167-4.125-2.3 0-4.167 2.5-4.167 2.5S8.635 2.5 6.335 2.5Z" stroke="#fff" stroke-width="2" stroke-linecap="round" stroke-linejoin="round"/>
</svg><svg fill="none" viewBox="0 0 35 67" id="hero-slider-arrow-left" xmlns="http://www.w3.org/2000/svg">
    <g clip-path="url(#ga)">
        <path d="M33.894 6.136a3.292 3.292 0 1 0-4.787-4.523L1.128 31.238a3.292 3.292 0 0 0 0 4.523l27.98 29.628a3.291 3.291 0 1 0 4.786-4.52L8.047 33.5 33.894 6.136Z" fill="#ADBDC7"/>
    </g>
    <defs>
        <clipPath id="ga">
            <path fill="#fff" d="M0 0h35v67H0z"/>
        </clipPath>
    </defs>
</svg><svg fill="none" viewBox="0 0 36 67" id="hero-slider-arrow-right" xmlns="http://www.w3.org/2000/svg">
    <g clip-path="url(#ha)">
        <path d="M1.929 6.136a3.292 3.292 0 1 1 4.786-4.523l27.979 29.625a3.292 3.292 0 0 1 0 4.523L6.714 65.389a3.292 3.292 0 1 1-4.785-4.52L27.775 33.5 1.929 6.136Z" fill="#ADBDC7"/>
    </g>
    <defs>
        <clipPath id="ha">
            <path fill="#fff" transform="matrix(-1 0 0 1 35.822 0)" d="M0 0h35v67H0z"/>
        </clipPath>
    </defs>
</svg><svg fill="none" viewBox="0 0 24 24" id="iconoir_arrow-up" xmlns="http://www.w3.org/2000/svg">
    <path d="M3 12h18m0 0-8.5 8.5M21 12l-8.5-8.5" stroke="#29ADFF" stroke-width="1.5" stroke-linecap="round" stroke-linejoin="round"/>
</svg><svg fill="none" viewBox="0 0 26 26" id="instagram" xmlns="http://www.w3.org/2000/svg">
    <g clip-path="url(#ja)">
        <path fill-rule="evenodd" clip-rule="evenodd" d="M7.677.167C9.054.104 9.493.09 13 .09c3.506 0 3.945.015 5.32.077 1.376.063 2.315.282 3.137.6.86.325 1.64.833 2.286 1.49a6.306 6.306 0 0 1 1.488 2.286c.32.821.537 1.76.6 3.133.064 1.38.078 1.818.078 5.324s-.015 3.945-.077 5.322c-.062 1.373-.282 2.312-.601 3.133a6.331 6.331 0 0 1-1.488 2.288 6.33 6.33 0 0 1-2.286 1.488c-.822.32-1.76.537-3.134.6-1.378.064-1.817.078-5.323.078-3.507 0-3.946-.015-5.323-.077-1.373-.062-2.312-.282-3.133-.601a6.332 6.332 0 0 1-2.288-1.488 6.328 6.328 0 0 1-1.489-2.286c-.318-.822-.536-1.76-.6-3.134C.104 16.944.09 16.505.09 13c0-3.507.015-3.946.077-5.322.063-1.375.282-2.314.6-3.135a6.333 6.333 0 0 1 1.49-2.287A6.328 6.328 0 0 1 4.543.767c.821-.318 1.76-.536 3.133-.6h.001Zm10.54 2.324c-1.362-.062-1.77-.075-5.217-.075-3.447 0-3.856.013-5.217.075-1.26.058-1.942.268-2.398.445a4.009 4.009 0 0 0-1.484.965 4.004 4.004 0 0 0-.965 1.484c-.177.456-.387 1.139-.445 2.398-.062 1.361-.075 1.77-.075 5.217 0 3.447.013 3.855.075 5.216.058 1.26.268 1.943.445 2.398.206.56.536 1.068.965 1.485.416.428.924.758 1.484.964.456.178 1.139.388 2.398.445 1.361.062 1.769.075 5.217.075 3.448 0 3.855-.013 5.216-.075 1.26-.057 1.943-.267 2.398-.445a4.01 4.01 0 0 0 1.485-.964 4.01 4.01 0 0 0 .964-1.485c.178-.455.388-1.138.445-2.398.062-1.361.075-1.77.075-5.216 0-3.447-.013-3.856-.075-5.217-.057-1.26-.267-1.942-.445-2.398a4.009 4.009 0 0 0-.964-1.484 4.006 4.006 0 0 0-1.485-.965c-.455-.177-1.138-.387-2.398-.445ZM11.35 16.98a4.306 4.306 0 1 0 3.1-8.034 4.307 4.307 0 0 0-3.1 8.034ZM8.307 8.307a6.636 6.636 0 1 1 9.385 9.385 6.636 6.636 0 0 1-9.385-9.385Zm12.8-.955a1.57 1.57 0 1 0-2.155-2.284 1.57 1.57 0 0 0 2.155 2.284Z" fill="#fff"/>
    </g>
    <defs>
        <clipPath id="ja">
            <path fill="#fff" d="M0 0h26v26H0z"/>
        </clipPath>
    </defs>
</svg><svg fill="none" viewBox="0 0 22 22" id="lock" xmlns="http://www.w3.org/2000/svg">
    <path d="M17.417 9.166H4.583c-1.012 0-1.833.82-1.833 1.833v7.334c0 1.012.82 1.833 1.833 1.833h12.834c1.012 0 1.833-.82 1.833-1.833v-7.334c0-1.012-.82-1.833-1.833-1.833Z" stroke="#fff" stroke-width="2" stroke-linecap="round" stroke-linejoin="round"/>
    <path d="M5.5 9.166V4.583a2.75 2.75 0 0 1 2.75-2.75h5.5a2.75 2.75 0 0 1 2.75 2.75V5.5" stroke="#fff" stroke-width="2" stroke-linecap="round" stroke-linejoin="round"/>
</svg><svg fill="none" viewBox="0 0 26 26" id="tiktok" xmlns="http://www.w3.org/2000/svg">
    <rect x="1" y="1" width="24" height="24" rx="4" stroke="#fff" stroke-width="2"/>
    <path d="M18.381 8.994a3.469 3.469 0 0 1-.295-.16 4.092 4.092 0 0 1-.758-.602c-.566-.604-.777-1.217-.854-1.645h.002C16.412 6.23 16.438 6 16.443 6h-2.576v9.297c0 .124 0 .248-.006.37l-.002.046c0 .006 0 .013-.002.02v.006a1.95 1.95 0 0 1-.334.938 2.13 2.13 0 0 1-.766.682 2.271 2.271 0 0 1-1.067.262c-1.2 0-2.173-.913-2.173-2.04 0-1.13.973-2.043 2.173-2.043.227 0 .453.034.67.1l.003-2.45a5.117 5.117 0 0 0-1.957.144 4.903 4.903 0 0 0-1.731.865c-.444.36-.817.79-1.103 1.269-.109.175-.52.879-.569 2.02-.031.647.177 1.319.277 1.595v.007c.062.163.304.72.7 1.19a5.11 5.11 0 0 0 1.115.983v-.006l.006.006c1.246.79 2.63.738 2.63.738.24-.009 1.041 0 1.952-.402a4.856 4.856 0 0 0 1.584-1.112c.367-.398.66-.85.864-1.34.233-.572.31-1.258.31-1.531V10.68c.032.018.449.275.449.275s.6.359 1.535.592c.67.166 1.575.202 1.575.202V9.362c-.317.032-.96-.061-1.62-.368h.002Z" fill="#fff"/>
</svg><svg fill="none" viewBox="0 0 18 19" id="trash" xmlns="http://www.w3.org/2000/svg">
    <g clip-path="url(#ma)" stroke="#fff" stroke-width="2" stroke-linecap="round" stroke-linejoin="round">
        <path d="M3 4.75h12l-1.185 11.258c-.04.387-.215.745-.49 1.005-.275.26-.632.404-1.001.404H5.676c-.37 0-.726-.144-1-.404a1.614 1.614 0 0 1-.491-1.006L3 4.75ZM5.509 2.491a1.56 1.56 0 0 1 .553-.662c.24-.16.52-.246.803-.246h4.27c.284 0 .563.085.803.246.24.16.433.39.554.662L13.5 4.75h-9L5.509 2.49ZM1.5 4.75h15M7.5 8.708v3.958M10.5 8.708v3.958"/>
    </g>
    <defs>
        <clipPath id="ma">
            <path fill="#fff" d="M0 0h18v19H0z"/>
        </clipPath>
    </defs>
</svg><svg fill="none" viewBox="0 0 26 26" id="vkontakte" xmlns="http://www.w3.org/2000/svg">
    <g clip-path="url(#na)">
        <path d="M4.824 0A4.843 4.843 0 0 0 0 4.824v16.352A4.843 4.843 0 0 0 4.824 26h16.352A4.843 4.843 0 0 0 26 21.176V4.824A4.843 4.843 0 0 0 21.176 0H4.824Zm0 2.364h16.352c1.37 0 2.46 1.09 2.46 2.46v16.352c0 1.37-1.09 2.46-2.46 2.46H4.824a2.445 2.445 0 0 1-2.46-2.46V4.824c0-1.37 1.09-2.46 2.46-2.46Zm7.844 6.18c-.869-.008-1.607 0-2.022.204-.278.135-.49.438-.36.452.161.024.525.102.72.366.248.336.24 1.099.24 1.099s.138 2.095-.338 2.359c-.327.18-.775-.186-1.744-1.852-.494-.858-.868-1.805-.868-1.805s-.07-.176-.198-.268a1.03 1.03 0 0 0-.375-.153l-2.313.015s-.346.014-.47.161c-.116.139-.01.41-.01.41s1.81 4.234 3.86 6.367c1.878 1.958 4.012 1.828 4.012 1.828h.969s.29-.032.438-.189c.14-.148.135-.425.135-.425s-.02-1.297.581-1.49c.596-.186 1.352 1.255 2.16 1.809.615.42 1.08.327 1.08.327l2.162-.032s1.126-.07.591-.96c-.041-.07-.31-.655-1.601-1.856-1.358-1.255-1.177-1.052.456-3.226.993-1.325 1.39-2.134 1.265-2.485-.119-.327-.849-.24-.849-.24l-2.433.015s-.18-.024-.314.055a.68.68 0 0 0-.212.263s-.388 1.024-.9 1.898c-1.081 1.836-1.52 1.938-1.694 1.823-.412-.268-.31-1.072-.31-1.639 0-1.787.272-2.526-.526-2.718-.264-.065-.457-.107-1.13-.112h-.002Z" fill="#fff"/>
    </g>
    <defs>
        <clipPath id="na">
            <path fill="#fff" d="M0 0h26v26H0z"/>
        </clipPath>
    </defs>
</svg></svg>